<?xml version="1.0" standalone="no"?>
<!DOCTYPE svg PUBLIC "-//W3C//DTD SVG 1.1//EN" "http://www.w3.org/Graphics/SVG/1.1/DTD/svg11.dtd" >
<!--
2013-9-30: Created.
-->
<svg>
<metadata>
Created by iconfont
</metadata>
<defs>

<font id="iconfont" horiz-adv-x="1024" >
  <font-face
    font-family="iconfont"
    font-weight="500"
    font-stretch="normal"
    units-per-em="1024"
    ascent="896"
    descent="-128"
  />
    <missing-glyph />
    
    <glyph glyph-name="ic_add" unicode="&#58892;" d="M199.22944 289.81248a20.48 20.48 0 1 0-35.34848-20.66432C124.04736 337.28512 102.4 402.49344 102.4 463.91296 102.4 680.07936 281.86624 855.04 502.9888 855.04c221.14304 0 400.5888-174.98112 400.5888-391.10656 0-131.21536-72.84736-256.9216-196.13696-378.96192a1389.58848 1389.58848 0 0 0-98.67264-88.20736c-13.1072-10.752-25.88672-20.8896-40.93952-32.64512-0.73728-0.57344-25.3952-19.7632-30.78144-24.04352-19.8656-15.7696-48.20992-15.7696-68.11648 0a1659.00288 1659.00288 0 0 0-152.76032 136.86784 20.48 20.48 0 0 0 29.20448 28.71296 1619.02592 1619.02592 0 0 1 148.97152-133.46816 14.00832 14.00832 0 0 1 17.24416 0c5.59104 4.42368 30.4128 23.73632 31.0272 24.20736a2226.9952 2226.9952 0 0 1 40.20224 32.07168 1349.46816 1349.46816 0 0 1 95.80544 85.6064c116.26496 115.0976 183.99232 231.95648 183.99232 349.85984C862.6176 657.2032 701.72672 814.08 502.9888 814.08 304.25088 814.08 143.36 657.2032 143.36 463.93344c0-53.248 19.41504-111.73888 55.86944-174.12096z m30.22848-112.76288a20.48 20.48 0 1 0 32.44032 24.9856c4.8128-6.22592 9.8304-12.55424 15.1552-19.12832a20.48 20.48 0 1 0-31.82592-25.8048 1019.2896 1019.2896 0 0 0-15.7696 19.94752zM669.696 488.79616c0 89.37472-74.50624 162.01728-166.7072 162.01728-92.20096 0-166.7072-72.64256-166.7072-162.01728 0-89.3952 74.50624-162.05824 166.7072-162.05824 92.20096 0 166.7072 72.66304 166.7072 162.05824z m40.96 0c0-112.25088-93.0816-203.01824-207.6672-203.01824-114.5856 0-207.6672 90.76736-207.6672 203.01824 0 112.2304 93.0816 202.97728 207.6672 202.97728 114.5856 0 207.6672-90.7264 207.6672-202.97728z"  horiz-adv-x="1024" />

    
    <glyph glyph-name="ic_guanfangkefu" unicode="&#58893;" d="M703.97952 84.13184c82.5344 32.9728 133.7344 87.9616 166.76864 166.03136a61.952 61.952 0 0 0-33.8944 55.13216v72.37632c0 26.43968 16.73216 49.09056 40.16128 57.91744C861.9008 624.51712 703.7952 773.12 510.976 773.12 318.1568 773.12 160.0512 624.51712 144.93696 435.58912a61.99296 61.99296 0 0 0 40.18176-57.91744v-72.37632a61.952 61.952 0 0 0-61.8496-61.82912A61.952 61.952 0 0 0 61.44 305.31584V377.6512c0 27.29984 17.85856 50.5856 42.47552 58.71616C119.52128 647.5776 295.81312 814.08 510.976 814.08c215.18336 0 391.45472-166.5024 407.06048-377.69216a62.01344 62.01344 0 0 0 42.47552-58.71616v-72.37632a62.01344 62.01344 0 0 0-47.59552-60.17024c-36.864-93.5936-96.80896-160.60416-194.56-199.35232a73.80992 73.80992 0 0 0-73.46176-79.17568 73.80992 73.80992 0 0 0-73.66656 73.66656 73.80992 73.80992 0 0 0 73.66656 73.66656c24.14592 0 45.64992-11.73504 59.0848-29.7984zM123.2896 284.42624c11.44832 0 20.8896 9.44128 20.8896 20.8896V377.6512c0 11.42784-9.44128 20.8896-20.8896 20.8896-11.42784 0-20.86912-9.46176-20.86912-20.8896v-72.37632c0-11.42784 9.44128-20.86912 20.8896-20.86912z m775.41376 0c11.42784 0 20.8896 9.44128 20.8896 20.8896V377.6512c0 11.42784-9.46176 20.8896-20.8896 20.8896s-20.8896-9.46176-20.8896-20.8896v-72.37632c0-11.42784 9.46176-20.86912 20.8896-20.86912zM644.89472 7.55712c17.94048 0 32.68608 14.76608 32.68608 32.70656s-14.7456 32.70656-32.68608 32.70656c-17.94048 0-32.70656-14.76608-32.70656-32.70656s14.7456-32.70656 32.70656-32.70656z"  horiz-adv-x="1024" />

    
    <glyph glyph-name="ic_pingjia" unicode="&#58894;" d="M151.79776 117.76A69.77536 69.77536 0 0 0 81.92 187.392V703.488C81.92 741.94944 113.2544 773.12 151.79776 773.12h740.88448A69.77536 69.77536 0 0 0 962.56 703.488v-516.096c0-38.46144-31.3344-69.632-69.87776-69.632H654.17216L522.24-13.5168 390.30784 117.76H151.79776z m485.4784 40.96h255.40608c15.9744 0 28.91776 12.88192 28.91776 28.672V703.488c0 15.79008-12.94336 28.672-28.91776 28.672H151.79776C135.82336 732.16 122.88 719.27808 122.88 703.488v-516.096c0-15.79008 12.94336-28.672 28.91776-28.672h255.40608l115.03616-114.4832L637.27616 158.72zM349.36832 457.728c0-27.136-22.1184-49.152-49.39776-49.152a49.29536 49.29536 0 0 0-49.39776 49.152c0 27.136 22.1184 49.152 49.39776 49.152a49.29536 49.29536 0 0 0 49.39776-49.152z m222.26944 0c0-27.136-22.1184-49.152-49.39776-49.152a49.29536 49.29536 0 0 0-49.39776 49.152c0 27.136 22.1184 49.152 49.39776 49.152a49.29536 49.29536 0 0 0 49.39776-49.152z m222.26944 0c0-27.136-22.1184-49.152-49.39776-49.152a49.29536 49.29536 0 0 0-49.39776 49.152c0 27.136 22.1184 49.152 49.39776 49.152a49.29536 49.29536 0 0 0 49.39776-49.152z"  horiz-adv-x="1024" />

    
    <glyph glyph-name="ic_shezhi" unicode="&#58895;" d="M850.1248 677.888a472.4736 472.4736 0 0 0 51.44576-71.4752l0.75776-1.20832a457.60512 457.60512 0 0 0 43.43808-101.5808 63.13984 63.13984 0 0 0-36.00384-75.42784 76.84096 76.84096 0 0 1-46.57152-66.72384 76.63616 76.63616 0 0 1 40.61184-70.94272c28.18048-14.848 40.96-48.3328 29.57312-77.96736a459.69408 459.69408 0 0 0-82.00192-136.72448 62.89408 62.89408 0 0 0-83.5584-10.17856 76.88192 76.88192 0 0 1-81.77664 3.42016 76.43136 76.43136 0 0 1-37.92896-73.60512 62.95552 62.95552 0 0 0-49.54112-67.82976c-60.45696-12.63616-121.9584-12.9024-182.84544-0.8192a62.62784 62.62784 0 0 0-50.3808 68.75136 76.43136 76.43136 0 0 1-121.0368 70.00064 62.70976 62.70976 0 0 0-84.7872 9.1136 465.05984 465.05984 0 0 0-51.83488 72.45824 458.0352 458.0352 0 0 0-43.8272 103.03488 63.16032 63.16032 0 0 0 38.6048 76.30848 76.14464 76.14464 0 0 1 49.43872 67.95264 76.24704 76.24704 0 0 1-42.31168 71.84384 62.75072 62.75072 0 0 0-30.65856 79.74912 455.8848 455.8848 0 0 0 83.43552 135.04512 62.81216 62.81216 0 0 0 84.25472 8.6016 76.36992 76.36992 0 0 1 83.39456-4.58752 76.57472 76.57472 0 0 1 37.76512 73.3184 62.8736 62.8736 0 0 0 50.7904 67.91168 454.88128 454.88128 0 0 0 179.13856-1.37216 62.976 62.976 0 0 0 49.84832-67.25632 76.51328 76.51328 0 0 1 37.72416-72.62208 76.94336 76.94336 0 0 1 81.65376 3.11296 63.05792 63.05792 0 0 0 83.18976-10.32192z m-60.02688-23.49056a117.88288 117.88288 0 0 0-125.3376-4.77184 117.47328 117.47328 0 0 0-57.99936 111.63648 22.03648 22.03648 0 0 1-17.34656 23.59296 413.92128 413.92128 0 0 1-163.08224 1.24928 21.9136 21.9136 0 0 1-17.77664-23.79776 117.5552 117.5552 0 0 0-58.08128-112.70144 117.30944 117.30944 0 0 0-128.1024 7.0656 21.85216 21.85216 0 0 1-29.47072-2.8672 414.88384 414.88384 0 0 1-75.91936-122.92096c-4.3008-10.83392 0.26624-22.67136 10.79296-27.89376a117.20704 117.20704 0 0 0 65.024-110.44864 117.10464 117.10464 0 0 0-75.9808-104.40704 22.20032 22.20032 0 0 1-13.57824-26.624 417.15712 417.15712 0 0 1 39.91552-93.85984 424.0384 424.0384 0 0 1 47.22688-66.02752c7.5776-8.68352 20.19328-10.0352 29.65504-3.05152a117.39136 117.39136 0 0 0 186.01984-107.47904 21.7088 21.7088 0 0 1 17.55136-24.08448c55.58272-11.01824 111.5136-10.77248 166.66624 0.75776a21.97504 21.97504 0 0 1 17.08032 23.67488 117.3504 117.3504 0 0 0 58.22464 113.13152 117.84192 117.84192 0 0 0 125.6448-5.3248c9.35936-6.49216 21.9136-4.97664 29.184 3.42016a418.7136 418.7136 0 0 1 74.752 124.55936 21.87264 21.87264 0 0 1-10.46528 27.07456 117.59616 117.59616 0 0 0-62.42304 109.03552A117.78048 117.78048 0 0 0 893.7472 465.92c10.28096 4.36224 15.70816 15.7696 12.65664 26.37824a416.09216 416.09216 0 0 1-38.85056 91.32032l-0.67584 1.08544a437.63712 437.63712 0 0 1-47.59552 66.23232 22.09792 22.09792 0 0 1-29.184 3.4816z m-293.82656-120.54528c85.62688 0 155.2384-69.55008 155.2384-155.11552s-69.61152-155.11552-155.2384-155.11552c-85.64736 0-155.27936 69.55008-155.27936 155.11552s69.632 155.11552 155.27936 155.11552z m0-40.96c-63.03744 0-114.31936-51.22048-114.31936-114.15552s51.28192-114.15552 114.31936-114.15552c63.01696 0 114.2784 51.22048 114.2784 114.15552s-51.26144 114.15552-114.2784 114.15552z"  horiz-adv-x="1024" />

    
    <glyph glyph-name="ic_tuihuanhuo" unicode="&#58897;" d="M892.68224 567.6032a20.48 20.48 0 1 0 37.1712 17.2032 464.11776 464.11776 0 0 0 42.98752-195.6864c0-257.3312-208.60928-465.94048-465.94048-465.94048C249.56928-76.82048 40.96 131.7888 40.96 389.09952 40.96 646.4512 249.56928 855.04 506.88 855.04a464.2816 464.2816 0 0 0 316.37504-123.86304 20.48 20.48 0 0 0-27.81184-30.06464A423.3216 423.3216 0 0 1 506.88 814.08C272.1792 814.08 81.92 623.8208 81.92 389.12s190.2592-424.98048 424.96-424.98048c234.72128 0 425.00096 190.2592 425.00096 424.96 0 62.52544-13.49632 123.0848-39.19872 178.50368z m-160.5632-113.0496a20.48 20.48 0 0 0 0-40.96H292.72064c-28.0576 0-42.12736 33.8944-22.3232 53.76l158.76096 159.17056a20.48 20.48 0 0 0 28.99968-28.93824l-142.68416-143.03232h416.60416z m-450.43712-130.8672a20.48 20.48 0 1 0 0 40.96h439.37792c28.0576 0 42.12736-33.93536 22.30272-53.78048l-158.74048-159.17056a20.48 20.48 0 1 0-28.99968 28.93824l142.66368 143.03232H281.68192z"  horiz-adv-x="1024" />

    
    <glyph glyph-name="ic_tousu" unicode="&#58898;" d="M933.04832 388.5056C933.04832 623.57504 742.52288 814.08 507.47392 814.08 272.44544 814.08 81.92 623.55456 81.92 388.5056c0-235.008 190.52544-425.53344 425.5744-425.53344 235.008 0 425.55392 190.52544 425.55392 425.55392z m40.96 0c0-257.6384-208.87552-466.49344-466.5344-466.49344C249.856-77.98784 40.96 130.8672 40.96 388.5056 40.96 646.144 249.83552 855.04 507.4944 855.04c257.6384 0 466.51392-208.87552 466.51392-466.5344zM491.52 654.336a20.48 20.48 0 1 0 40.96 0v-405.504a20.48 20.48 0 0 0-40.96 0V654.336zM491.52 158.72a20.48 20.48 0 0 0 40.96 0v-22.528a20.48 20.48 0 0 0-40.96 0V158.72z"  horiz-adv-x="1024" />

    
    <glyph glyph-name="ic_daipingjia" unicode="&#58899;" d="M600.30976 147.59936c6.144 7.10656 15.0528 11.20256 24.4736 11.20256h237.03552c18.6368 0 33.93536 15.31904 33.93536 33.95584v484.9664c0 18.6368-15.31904 33.95584-33.93536 33.95584H177.31584C158.67904 711.68 143.36 696.36096 143.36 677.72416v-484.9664c0-18.6368 15.31904-33.95584 33.95584-33.95584h256.22528c9.1136 0 17.75616-3.82976 23.9616-10.60864l73.5232-81.08032 69.28384 80.4864zM177.31584 117.84192A75.07968 75.07968 0 0 0 102.4 192.75776v484.9664A75.07968 75.07968 0 0 0 177.31584 752.64h684.50304a75.0592 75.0592 0 0 0 74.89536-74.91584v-484.9664a75.0592 75.0592 0 0 0-74.89536-74.91584H628.736l-79.83104-92.7744c-9.09312-10.50624-25.4976-10.79296-34.6112-0.4096l-84.54144 93.184H177.31584zM297.86112 494.2848a20.48 20.48 0 0 0 0 40.96h443.392a20.48 20.48 0 0 0 0-40.96h-443.392zM297.86112 343.8592a20.48 20.48 0 0 0 0 40.96h443.392a20.48 20.48 0 0 0 0-40.96h-443.392z"  horiz-adv-x="1024" />

    
    <glyph glyph-name="ic_daifukuan" unicode="&#58900;" d="M836.42368 200.4992a20.48 20.48 0 1 0 40.96 0v-128.18432c0-45.34272-35.14368-82.55488-79.09376-82.55488H161.01376C117.06368-10.24 81.92 26.97216 81.92 72.31488V690.5856C81.92 735.92832 117.06368 773.12 161.01376 773.12h637.27616c43.95008 0 79.09376-37.19168 79.09376-82.5344v-125.66528a20.48 20.48 0 1 0-40.96 0V690.5856c0 23.22432-17.32608 41.5744-38.13376 41.5744H161.01376C140.20608 732.16 122.88 713.80992 122.88 690.5856v-618.27072c0-23.22432 17.34656-41.59488 38.13376-41.59488h637.27616c20.7872 0 38.13376 18.37056 38.13376 41.59488V200.4992z m-1.55648 110.12096a57.58976 57.58976 0 0 1 57.344 57.36448v26.91072a57.58976 57.58976 0 0 1-57.344 57.36448h-301.2608a57.58976 57.58976 0 0 1-57.36448-57.344v-26.9312a57.58976 57.58976 0 0 1 57.344-57.344h301.2608z m0-40.96h-301.2608a98.54976 98.54976 0 0 0-98.32448 98.32448v26.91072a98.54976 98.54976 0 0 0 98.304 98.32448h301.2608a98.54976 98.54976 0 0 0 98.34496-98.304v-26.9312a98.54976 98.54976 0 0 0-98.32448-98.304z m8.23296 111.77984a29.04064 29.04064 0 1 0-58.0608 0.04096 29.04064 29.04064 0 0 0 58.0608-0.04096z"  horiz-adv-x="1024" />

    
    <glyph glyph-name="ic_tuikuanshouhou" unicode="&#58902;" d="M506.75712-21.99552a20.48 20.48 0 1 0 0.34816 40.96c202.58816-1.69984 368.18944 161.1776 369.8688 363.78624 1.69984 202.58816-161.11616 368.18944-363.7248 369.88928a20.48 20.48 0 1 0 0.34816 40.96c225.21856-1.90464 406.24128-185.97888 404.35712-411.19744-1.88416-225.21856-185.9584-406.28224-411.19744-404.39808zM143.36 388.9152c-1.67936-202.62912 161.1776-368.27136 363.7248-369.95072a20.48 20.48 0 1 0-0.32768-40.96c-225.19808 1.88416-406.2208 185.99936-404.33664 411.2384a406.07744 406.07744 0 0 0 77.7216 236.1344l2.21184 2.56 70.81984 69.65248a20.48 20.48 0 1 0 28.73344-29.20448l-69.632-68.44416A365.11744 365.11744 0 0 1 143.40096 388.9152zM137.728 668.30336a20.48 20.48 0 0 0 0.34816 40.96l137.4208-1.14688a20.48 20.48 0 0 0 20.29568-20.64384l-1.14688-137.4208a20.48 20.48 0 1 0-40.96 0.34816l0.98304 116.9408-116.9408 0.96256zM372.40832 556.48256a20.48 20.48 0 1 0 33.42336 23.67488l129.24928-182.25152a20.48 20.48 0 0 0-33.40288-23.69536l-129.26976 182.272zM539.40224 379.51488l-0.55296-211.72224a20.48 20.48 0 1 0-40.96 0.1024l0.57344 218.23488a20.48 20.48 0 0 0 3.76832 11.79648l129.26976 182.23104a20.48 20.48 0 0 0 33.40288-23.69536l-125.50144-176.9472zM605.184 397.27104a20.48 20.48 0 0 0 0-40.96h-173.07648a20.48 20.48 0 1 0 0 40.96h173.056zM605.184 316.80512a20.48 20.48 0 0 0 0-40.96h-173.07648a20.48 20.48 0 1 0 0 40.96h173.056z"  horiz-adv-x="1024" />

    
    <glyph glyph-name="ic_daishouhuo" unicode="&#58903;" d="M122.88 126.30016a20.48 20.48 0 0 0-40.96 0v281.6a20.48 20.48 0 0 0 9.91232 17.55136l191.46752 115.2V705.49504A67.62496 67.62496 0 0 0 350.94528 773.12h541.83936a67.64544 67.64544 0 0 0 67.64544-67.62496v-580.89472a20.48 20.48 0 0 0-40.96 0V705.49504c0 14.70464-11.96032 26.66496-26.68544 26.66496H350.94528c-14.7456 0-26.68544-11.93984-26.68544-26.66496v-176.41472a20.48 20.48 0 0 0-9.91232-17.55136L122.88 396.32896v-270.0288z m170.33216 420.33152l-9.91232-17.55136v11.5712l9.91232 5.98016zM359.97696 109.28128a68.5056 68.5056 0 1 1-136.99072 0 68.5056 68.5056 0 0 1 137.0112 0z m40.96 0a109.4656 109.4656 0 1 0-218.91072 0 109.4656 109.4656 0 0 0 218.9312 0zM819.36384 109.28128a68.5056 68.5056 0 1 1-137.0112 0 68.5056 68.5056 0 0 1 137.0112 0z m40.96 0a109.4656 109.4656 0 1 0-218.9312 0 109.4656 109.4656 0 0 0 218.9312 0zM393.29792 83.64032v40.96h249.61024v-40.96zM379.26912 347.7504l-20.48-20.48v20.48h20.48z m-20.48 79.36a20.48 20.48 0 0 0 40.96 0v-99.84a20.48 20.48 0 0 0-20.48-20.48h-142.06976a20.48 20.48 0 0 0 0 40.96h121.58976v79.36z"  horiz-adv-x="1024" />

    
    <glyph glyph-name="ic_dianpushoucang" unicode="&#58904;" d="M921.6 445.44v-389.12a102.4 102.4 0 0 0-102.4-102.4H225.28a102.4 102.4 0 0 0-102.4 102.4V445.44H40.96a20.48 20.48 0 0 0-19.6608 26.25536L94.39232 720.09728A102.4 102.4 0 0 0 192.6144 793.6h645.46816a102.4 102.4 0 0 0 98.24256-73.5232l73.05216-248.38144A20.48 20.48 0 0 0 989.73696 445.44H921.6z m-250.38848-187.84256c18.26816 63.85664-20.60288 115.11808-62.27968 123.98592-40.26368 8.3968-72.58112-5.12-97.40288-38.7072-24.82176 33.5872-56.19712 47.104-96.4608 38.7072-41.6768-8.86784-80.54784-60.12928-62.2592-123.98592C374.784 181.16607999999997 455.80288 144.34303999999997 512 97.27999999999997c56.19712 47.06304 137.216 83.88608 159.21152 160.31744z"  horiz-adv-x="1024" />

    
    <glyph glyph-name="ic_xiaoxi" unicode="&#58906;" d="M617.787077 775.758769c-2.087385 45.666462-44.110769 81.467077-94.936615 79.911385-50.845538 1.555692-93.400615-34.244923-94.936616-79.911385v-11.933538C288.886154 717.666462 195.997538 598.862769 193.929846 465.526154v-106.338462s0-159.803077-44.622769-159.803077c-25.934769 1.043692-48.246154-16.600615-50.825846-39.936-0.531692-21.799385 18.156308-39.424 42.023384-39.955692h744.448c24.398769 2.087385 42.535385 21.799385 39.955693 43.579077-2.067692 19.2-18.688 34.244923-39.955693 36.312615-44.603077 0-44.603077 159.783385-44.603077 159.783385v114.136615c6.222769 130.756923-84.046769 249.540923-221.538461 291.564308v11.421539l-1.024-0.531693zM656.699077 65.024a140.957538 140.957538 0 0 0-142.670769-138.003692h-1.575385c-77.292308-2.579692-142.139077 58.092308-144.738461 135.936v2.067692h288.984615z"  horiz-adv-x="1024" />

    
    <glyph glyph-name="ic_shanchu" unicode="&#58910;" d="M512-128a512 512 0 1 0 0 1024 512 512 0 0 0 0-1024z m2048 0a512 512 0 1 0 0 1024 512 512 0 0 0 0-1024z m2048 0a512 512 0 1 0 0 1024 512 512 0 0 0 0-1024z"  horiz-adv-x="5120" />

    
    <glyph glyph-name="ic_dajiadouzaimai" unicode="&#58917;" d="M629.308235 13.010824c75.535059 146.522353 19.696941 344.395294-111.344941 435.712 8.734118-39.393882-2.228706-141.703529-60.02447-206.245648 12.920471 66.499765-19.666824 109.116235-19.666824 109.116236s-10.992941-60.355765-52.615529-121.072941c-38.068706-55.476706-64.542118-114.567529-14.817883-217.509647-157.816471 88.756706-199.137882 172.664471-175.585882 287.563294 17.438118 84.570353 82.311529 153.6 87.792941 238.20047 24.545882-44.544 27.437176-76.8 30.328471-123.301647 77.763765 95.533176 158.810353 223.021176 141.372235 339.84753 0 0 147.817412-46.471529 207.510588-272.715295 35.177412 31.322353 31.954824 95.864471 14.546824 134.294589 52.284235-38.430118 353.731765-377.344-47.49553-603.888941M511.849412 896C229.165176 896 0 666.834824 0 384.150588c0-282.684235 229.165176-511.819294 511.849412-511.819294 282.684235 0 511.819294 229.135059 511.819294 511.819294S794.533647 896 511.849412 896"  horiz-adv-x="1024" />

    
    <glyph glyph-name="ic_jingxuan" unicode="&#58918;" d="M512-128C229.225412-128 0 101.225412 0 384S229.225412 896 512 896s512-229.225412 512-512-229.225412-512-512-512zM279.642353 482.394353c-22.497882 0-40.207059-18.974118-38.610824-41.261177l21.353412-309.519058a38.761412 38.761412 0 0 1 38.640941-36.050824H686.08c18.160941 0 31.774118 11.324235 41.080471 28.521412 15.450353 30.238118 55.506824 158.418824 71.228235 295.845647 8.131765 56.651294-16.022588 62.554353-48.760471 62.554353H617.411765a13.101176 13.101176 0 0 0-12.137412 18.070588l1.656471 8.673882c10.450824 53.699765 9.065412 111.736471-26.051765 155.557648-11.444706 15.299765-21.985882 20.389647-36.984471 20.389647h-3.493647c-16.594824 0-30.238118-13.071059-31.021176-29.605647a193.746824 193.746824 0 0 0-80.474353-147.877648l-21.112471-15.149176c-9.216-6.595765-20.239059-10.149647-31.563294-10.149647H279.642353z"  horiz-adv-x="1024" />

    
    <glyph glyph-name="ic_quanbu" unicode="&#58919;" d="M512-128C229.225412-128 0 101.225412 0 384S229.225412 896 512 896s512-229.225412 512-512-229.225412-512-512-512z m22.708706 534.708706h124.175059A124.325647 124.325647 0 0 1 783.058824 530.883765 124.325647 124.325647 0 0 1 658.883765 655.058824a124.325647 124.325647 0 0 1-124.175059-124.175059v-124.175059zM365.146353 655.058824A124.325647 124.325647 0 0 1 240.941176 530.883765a124.325647 124.325647 0 0 1 124.175059-124.175059h124.175059v124.175059C490.465882 599.341176 434.778353 655.058824 365.116235 655.058824z m169.562353-417.942589A124.325647 124.325647 0 0 1 658.883765 112.94117600000004 124.325647 124.325647 0 0 1 783.058824 237.11623499999996a124.325647 124.325647 0 0 1-124.175059 124.175059h-124.175059v-124.175059z m-44.272941 0v125.349647h-125.289412A124.325647 124.325647 0 0 1 240.941176 238.29082400000004a124.325647 124.325647 0 0 1 124.175059-124.175059 122.88 122.88 0 0 1 125.349647 123.00047z"  horiz-adv-x="1024" />

    
    <glyph glyph-name="ic_xiangsi" unicode="&#58920;" d="M512-128C229.225412-128 0 101.225412 0 384S229.225412 896 512 896s512-229.225412 512-512-229.225412-512-512-512z m158.177882 582.776471a19.877647 19.877647 0 0 0-17.347764 9.517176 18.733176 18.733176 0 0 0 0 19.335529 19.877647 19.877647 0 0 0 17.317647 9.517177c10.752-0.210824 19.365647-8.734118 19.335529-19.184941 0-10.420706-8.553412-18.974118-19.305412-19.184941z m-295.002353 76.8c9.637647 65.024 67.222588 115.2 136.824471 115.2 69.571765 0 127.186824-50.176 136.824471-115.2h-273.648942z m-21.353411-76.8a19.877647 19.877647 0 0 0-17.347765 9.517176 18.703059 18.703059 0 0 0 0 19.335529 19.877647 19.877647 0 0 0 17.317647 9.517177c10.752-0.210824 19.335529-8.734118 19.335529-19.184941 0-10.420706-8.583529-18.974118-19.305411-19.184941z m389.722353 76.8H688.790588C678.912 617.833412 603.437176 685.176471 512 685.176471s-166.912-67.343059-176.790588-153.6H280.485647c-11.444706 0-22.287059-4.818824-29.816471-13.131295a37.647059 37.647059 0 0 1-9.366588-30.448941l48.51953-345.6c2.710588-19.034353 19.425882-33.219765 39.213176-33.219764h365.929412c19.787294 0 36.532706 14.155294 39.213176 33.219764l48.51953 345.6a37.707294 37.707294 0 0 1-9.396706 30.418824 40.056471 40.056471 0 0 1-29.786353 13.161412z"  horiz-adv-x="1024" />

    
    <glyph glyph-name="ic_youhuiquan1" unicode="&#58921;" d="M632.470588 397.402353a10.721882 10.721882 0 0 1 11.354353 10.029176v22.287059a11.354353 11.354353 0 0 1-12.016941 9.999059H542.72l97.340235 91.316706a11.143529 11.143529 0 0 1 0 15.149176l-15.36 15.36a10.691765 10.691765 0 0 1-15.179294 0l-106.676706-102.430117-106.676706 102.430117a10.691765 10.691765 0 0 1-15.149176 0l-15.36-14.45647a9.788235 9.788235 0 0 1 0-13.824l96.677647-93.06353h-89.118118a11.354353 11.354353 0 0 1-11.806117-10.932705v-21.172706c0.692706-6.023529 5.963294-10.541176 12.047059-10.24h105.773176v-42.315294h-106.465882a10.902588 10.902588 0 0 1-11.354353-10.24v-22.287059c0.692706-6.023529 5.993412-10.420706 12.047059-10.029177h105.773176v-74.601412a11.384471 11.384471 0 0 1 11.806118-10.932705h23.853176a11.354353 11.354353 0 0 1 11.806118 10.932705v75.294118h106.224941a10.691765 10.691765 0 0 1 11.354353 9.999059v22.287059a11.384471 11.384471 0 0 1-11.806118 10.24h-105.773176v41.200941H632.470588zM511.488 896C229.345882 895.156706 0.843294 666.654118 0 384.512c0.843294-282.142118 229.345882-510.674824 511.488-511.518118 282.142118 0.843294 510.674824 229.376 511.518118 511.518118C1022.162824 666.654118 793.6 895.156706 511.488 896z m305.995294-407.521882a27.919059 27.919059 0 0 0-16.926118-30.328471c-37.647059-18.191059-50.416941-31.924706-51.049411-60.626823-0.632471-28.702118 13.402353-43.700706 50.416941-60.626824a29.515294 29.515294 0 0 0 17.558588-30.298353v-90.955294a47.887059 47.887059 0 0 0-50.29647-45.477647H261.541647a47.887059 47.887059 0 0 0-50.296471 45.477647v90.955294a33.972706 33.972706 0 0 0 17.558589 30.298353c21.232941 6.716235 49.784471 19.937882 49.78447 60.626824 0 31.924706-27.286588 50.898824-50.416941 60.626823a27.587765 27.587765 0 0 0-16.926118 30.328471v90.925176a47.887059 47.887059 0 0 0 50.296471 45.477647h505.554824a47.856941 47.856941 0 0 0 50.416941-45.477647v-90.955294z"  horiz-adv-x="1024" />

    
    <glyph glyph-name="ic_add1" unicode="&#58922;" d="M512-128C229.23264-128 0 101.23263999999995 0 384S229.23264 896 512 896s512-229.23264 512-512-229.23264-512-512-512z m10.24 449.88416c-46.96064 0-85.11488 36.49536-85.11488 81.44896s38.0928 81.42848 85.11488 81.42848c47.04256 0 85.11488-36.47488 85.11488-81.42848 0-44.9536-38.15424-81.44896-85.11488-81.44896zM522.24 609.28C403.456 609.28 307.2 517.57056 307.2 404.41856 307.2 270.49983999999995 503.23456 117.75999999999999 522.24 117.75999999999999 545.03424 117.75999999999999 737.28 266.15808000000004 737.28 404.41856 737.28 517.57056 641.024 609.28 522.24 609.28z"  horiz-adv-x="1024" />

    
    <glyph glyph-name="ic_gengxin" unicode="&#58924;" d="M512-128C229.220174-128 0 101.22017400000004 0 384S229.220174 896 512 896s512-229.220174 512-512-229.220174-512-512-512z m30.363826 309.648696h285.339826a166.956522 166.956522 0 0 1-164.685913 242.086956 166.956522 166.956522 0 1 1-332.421565 0.133565 166.956522 166.956522 0 0 1-134.299826-242.242782h285.339826V292.73043500000006h-91.046957l130.649044 131.784348 111.927652-131.784348h-90.824348v-111.081739z"  horiz-adv-x="1024" />

    
    <glyph glyph-name="ic_huancun" unicode="&#58925;" d="M512-128C229.220174-128 0 101.22017400000004 0 384S229.220174 896 512 896s512-229.220174 512-512-229.220174-512-512-512zM281.978435 354.79373899999996v-190.976c0-19.70087 16.962783-35.817739 37.910261-35.817739h387.917913c20.969739 0 38.021565 16.027826 37.932521 35.84v190.909217h16.517566c21.303652 0 38.622609 17.318957 38.622608 38.622609v58.657391c0 21.281391-17.318957 38.600348-38.622608 38.600348h-160.367305c0.089043 0.845913 0.133565 1.691826 0.133566 2.56v111.571478a23.373913 23.373913 0 0 1-23.418435 23.396174H467.033043c-12.889043 0-23.396174-10.50713-23.396173-23.396174v-111.571478c0-0.868174 0.044522-1.714087 0.133565-2.56h-160.278261c-21.303652 0-38.622609-17.318957-38.622609-38.600348v-58.657391c0-20.791652 16.495304-37.798957 37.10887-38.578087z m148.390956-216.242087c0-5.810087-4.162783-10.551652-9.260521-10.551652-5.12 0-9.282783 4.741565-9.282783 10.551652V247.318261c0 5.787826 4.162783 10.529391 9.282783 10.529391 5.12 0 9.260522-4.719304 9.260521-10.529391v-108.766609z m111.304348 0c0-5.810087-4.162783-10.551652-9.260522-10.551652-5.12 0-9.282783 4.741565-9.282782 10.551652V247.318261c0 5.787826 4.162783 10.529391 9.282782 10.529391 5.12 0 9.260522-4.719304 9.260522-10.529391v-108.766609z m92.761044 0c0-5.810087-4.162783-10.551652-9.282783-10.551652-5.12 0-9.260522 4.741565-9.260522 10.551652V247.318261c0 5.787826 4.162783 10.529391 9.260522 10.529391 5.12 0 9.282783-4.719304 9.282783-10.529391v-108.766609z"  horiz-adv-x="1024" />

    
    <glyph glyph-name="ic_haoping" unicode="&#58926;" d="M512-128C229.220174-128 0 101.22017400000004 0 384S229.220174 896 512 896s512-229.220174 512-512-229.220174-512-512-512z m-188.416 575.710609l-42.540522 2.114782A35.84 35.84 0 0 1 244.869565 413.673739V156.271304c0-10.618435 4.251826-19.144348 10.640696-25.510956 6.366609-6.38887 17.007304-10.640696 25.533217-10.640696h399.894261c17.029565 0 31.899826 6.366609 46.792348 19.144348 12.777739 10.640696 19.144348 25.533217 19.144348 44.655304l31.922087 227.617392c0 21.281391-4.251826 38.288696-12.777739 48.929391-8.503652 10.640696-21.25913 17.007304-38.288696 17.007304H546.949565l8.503652 34.059131c8.525913 40.403478 19.144348 74.440348 0 102.088348-19.144348 27.648-44.655304 40.403478-76.577391 36.151652-14.892522-2.114783-27.648-8.503652-36.151652-17.007305-10.640696-8.503652-19.144348-21.281391-27.648-40.425739a368.573217 368.573217 0 0 1-21.281391-51.044174c-10.640696-29.785043-23.396174-61.68487-34.03687-91.469913v-329.705739h-36.151652V447.710609z"  horiz-adv-x="1024" />

    
    <glyph glyph-name="ic_weixuanzhong" unicode="&#58929;" d="M512-128C229.225412-128 0 101.225412 0 384S229.225412 896 512 896s512-229.225412 512-512-229.225412-512-512-512z m0 60.235294c249.494588 0 451.764706 202.270118 451.764706 451.764706 0 249.494588-202.270118 451.764706-451.764706 451.764706C262.505412 835.764706 60.235294 633.494588 60.235294 384c0-249.494588 202.270118-451.764706 451.764706-451.764706z"  horiz-adv-x="1024" />

    
    <glyph glyph-name="ic_xuanzhong" unicode="&#58930;" d="M512-128C229.225412-128 0 101.225412 0 384S229.225412 896 512 896s512-229.225412 512-512-229.225412-512-512-512z m235.098353 693.699765L437.910588 267.685647l-159.141647 183.326118a30.117647 30.117647 0 0 1-45.477647-39.484236l179.952941-207.269647a30.117647 30.117647 0 0 1 43.640471-1.957647l332.047059 320a30.117647 30.117647 0 0 1-41.803294 43.369412z"  horiz-adv-x="1024" />

    
    <glyph glyph-name="ic_back" unicode="&#58931;" d="M773.377958-80.979344a27.213834 27.213834 0 0 0-0.565832-39.1502 28.857442 28.857442 0 0 0-40.120198 0.565833L250.549007 364.707817a27.213834 27.213834 0 0 0 0 38.584366L732.691928 887.563711a28.857442 28.857442 0 0 0 40.120198 0.538888 27.213834 27.213834 0 0 0 0.565832-39.123255L310.419443 384l462.958515-464.979344z"  horiz-adv-x="1024" />

    
    <glyph glyph-name="ic_dele" unicode="&#58932;" d="M150.613333-49.664c-21.077333-21.162667-53.76-22.698667-73.045333-3.413333-19.2 19.2-17.664 51.882667 3.413333 73.045333L873.472 812.288c21.077333 21.162667 53.76 22.698667 73.045333 3.413333 19.2-19.2 17.664-51.882667-3.413333-73.045333l-792.405333-792.32zM942.933333 19.968c21.162667-21.162667 22.698667-53.845333 3.498667-73.130667-19.2-19.2-51.968-17.664-73.045333 3.498667L81.066667 742.656C59.904 763.818667 58.368 796.501333 77.568 815.786667c19.2 19.2 51.968 17.664 73.045333-3.498667l792.32-792.32z"  horiz-adv-x="1024" />

    
    <glyph glyph-name="ic_dele1" unicode="&#58933;" d="M782.813867 177.152a37.546667 37.546667 0 0 0 0-51.746133 37.546667 37.546667 0 0 0-51.746134 0l-206.882133 206.848-206.848-206.848a37.546667 37.546667 0 0 0-51.746133 0 37.546667 37.546667 0 0 0 0 51.712L472.405333 384l-206.848 206.848a37.546667 37.546667 0 0 0 0 51.746133 37.546667 37.546667 0 0 0 51.712 0l206.882134-206.848 206.848 206.848a37.546667 37.546667 0 0 0 51.780266 0 37.546667 37.546667 0 0 0 0-51.712L575.931733 384l206.848-206.916267zM512 896C229.239467 896 0 666.760533 0 384c0-282.760533 229.239467-512 512-512 282.760533 0 512 229.239467 512 512 0 282.760533-229.239467 512-512 512z"  horiz-adv-x="1024" />

    
    <glyph glyph-name="ic_gou" unicode="&#58934;" d="M1255.971575 870.526474A79.312409 79.312409 0 0 0 1372.147498 870.852288c32.11594-33.65192 32.30212-88.342108 0.279269-122.180208l-805.225749-851.165507a79.265864 79.265864 0 0 0-113.755592-2.699601l-426.816191 411.921843a89.598819 89.598819 0 0 0-5.026843 122.087118 79.312409 79.312409 0 0 0 116.082833 5.259567l368.681686-355.881854L1255.971575 870.526474z"  horiz-adv-x="1396" />

    
    <glyph glyph-name="ic_arrow" unicode="&#58935;" d="M953.734095 630.6864760000001a35.742476 35.742476 0 0 0 48.128 0 30.378667 30.378667 0 0 0 1e-8-44.958476l-453.63200001-424.033524a35.742476 35.742476 0 0 0-48.079238 0l-453.63199999 424.033524a30.378667 30.378667 0 0 0-1e-8 44.958476 35.742476 35.742476 0 0 0 48.128 0l429.543619-401.554286L953.734095 630.735238z"  horiz-adv-x="1024" />

    
    <glyph glyph-name="ic_shaixuan" unicode="&#58939;" d="M63.744 763.904C28.5184 763.904 0 793.3952 0 829.952 0 866.4064 28.5184 896 63.744 896h896.512C995.4816 896 1024 866.4064 1024 829.952c0-36.5056-28.5184-66.048-63.744-66.048H63.744z m0-445.952C28.5184 317.952 0 347.4944 0 384c0 36.5056 28.5184 66.048 63.744 66.048h896.512C995.4816 450.048 1024 420.5056 1024 384c0-36.5056-28.5184-66.048-63.744-66.048H63.744z m0-445.952C28.5184-128 0-98.4064 0-61.952c0 36.5056 28.5184 66.048 63.744 66.048h896.512c35.2256 0 63.744-29.5424 63.744-66.048 0-36.4544-28.5184-66.048-63.744-66.048H63.744z"  horiz-adv-x="1024" />

    
    <glyph glyph-name="ic_shouyetanchuang" unicode="&#58940;" d="M512 384m-512 0a512 512 0 1 1 1024 0 512 512 0 1 1-1024 0ZM339.041524 194.925714a24.380952 24.380952 0 1 0-34.474667 34.474667l356.742095 356.766476a24.380952 24.380952 0 1 0 34.499048-34.499047L339.041524 194.925714zM695.808 229.400381a24.380952 24.380952 0 1 0-34.499048-34.474667L304.566857 551.66781a24.380952 24.380952 0 1 0 34.474667 34.499047l356.766476-356.766476z"  horiz-adv-x="1024" />

    
    <glyph glyph-name="ic_sousuo" unicode="&#58941;" d="M811.878144 122.624l191.8208-184.8576a25.6 25.6 0 0 0-35.5328-36.864l-193.0752 186.0864A459.008 459.008 0 0 0 473.266944-25.6C218.777344-25.6 12.466944 180.7104 12.466944 435.2S218.777344 896 473.266944 896s460.8-206.3104 460.8-460.8c0-120.6272-46.336-230.4-122.1888-312.576z m-49.8688 22.0672A408.32 408.32 0 0 1 882.866944 435.2c0 226.2272-183.3728 409.6-409.6 409.6S63.666944 661.4272 63.666944 435.2s183.3728-409.6 409.6-409.6c108.3648 0 206.8992 42.0864 280.1408 110.7712a25.728 25.728 0 0 0 8.6016 8.32z"  horiz-adv-x="1024" />

    
    <glyph glyph-name="fenzu" unicode="&#58942;" d="M511.049143 278.28419c-100.766476 0-184.198095 82.822095-184.198095 182.905905 0 100.059429 83.431619 182.905905 184.198095 182.905905 100.790857 0 184.222476-82.846476 184.222476-182.905905 0-100.08381-83.431619-182.905905-184.222476-182.905905m0 617.71581C267.776 896 73.142857 699.294476 73.142857 461.190095c0-48.323048 13.897143-103.521524 38.229333-162.206476 83.407238-196.705524 295.424-421.010286 399.676953-421.010286 104.277333 0 316.294095 224.304762 399.701333 424.472381 24.33219 58.660571 38.229333 113.859048 38.229334 162.182096C948.97981 702.756571 754.346667 896 511.049143 896"  horiz-adv-x="1024" />

    
    <glyph glyph-name="ic_dianpu1" unicode="&#58943;" d="M853.674667 365.665524c9.923048 3.82781 19.504762 8.801524 28.476952 14.774857 46.421333 31.012571 68.461714 88.673524 56.612571 143.920762l-56.271238 216.380952c-1.097143 5.095619-6.022095 8.97219-11.946666 8.972191H168.838095a12.288 12.288 0 0 1-12.214857-9.97181l-55.832381-214.625524c-11.142095-51.785143 6.192762-104.838095 45.592381-136.704 3.096381-2.486857 6.095238-4.705524 9.142857-6.802285 33.475048-23.04 79.555048-22.674286 114.663619 0.390095l51.687619 66.023619a30.403048 30.403048 0 0 0 47.591619 0.243809c25.283048-31.524571 61.147429-61.756952 100.888381-74.873904 57.880381-19.090286 114.517333 1.926095 171.593143 81.334857 9.411048 13.019429 27.721143 17.310476 41.886476 7.801905l3.730286-3.120762L780.190476 365.494857c19.577905-11.410286 44.885333-10.947048 73.484191 0.170667z m-549.644191-19.553524l-2.925714-2.072381c-51.833905-36.473905-121.758476-38.009905-173.104762-2.657524a190.390857 190.390857 0 0 0-12.190476 9.069715c-54.125714 43.76381-77.58019 115.565714-62.415238 185.929142l55.832381 214.625524C115.175619 778.800762 140.190476 798.47619 168.838095 798.47619h701.68381c28.672 0 53.638095-19.675429 59.392-46.445714l56.246857-216.405333c16.237714-75.434667-13.55581-153.380571-76.995048-195.754667a196.705524 196.705524 0 0 0-37.888-19.675428c-42.837333-16.65219-84.74819-16.798476-119.56419 5.558857l-4.193524 3.413333-78.921143 80.018286c-65.828571-82.407619-139.483429-106.544762-213.528381-82.090667-42.73981 14.116571-79.676952 41.862095-108.617143 73.216l-42.422857-54.198857zM858.819048 366.104381h48.761904v-290.450286c0-59.099429-45.982476-107.446857-103.350857-107.446857H226.255238c-57.368381 0-103.326476 48.347429-103.326476 107.446857V371.2h48.761905v-295.545905c0-32.694857 24.697905-58.684952 54.564571-58.684952h577.999238c29.866667 0 54.588952 25.990095 54.588953 58.684952V366.104381z"  horiz-adv-x="1024" />

    
    <glyph glyph-name="ic_kongjian" unicode="&#58948;" d="M512-122.77551C232.113633-122.77551 5.22449 104.113633 5.22449 384S232.113633 890.77551 512 890.77551 1018.77551 663.886367 1018.77551 384 791.886367-122.77551 512-122.77551z m0 10.448979c274.118531 0 496.326531 222.208 496.326531 496.326531S786.118531 880.326531 512 880.326531 15.673469 658.118531 15.673469 384 237.881469-112.326531 512-112.326531zM261.22449 171.321469a27.919673 27.919673 0 0 1 27.836081-27.836081H734.458776a27.919673 27.919673 0 0 1 27.836081 27.836081V435.774694H261.22449v-264.463674zM734.458776 574.955102H499.220898L449.118041 634.796408c-4.179592 5.558857-12.517878 9.738449-20.877061 9.738449H289.060571A27.919673 27.919673 0 0 1 261.22449 616.709224v-153.098448h501.059918V547.11902a27.919673 27.919673 0 0 1-27.836081 27.836082"  horiz-adv-x="1024" />

    
    <glyph glyph-name="ic_shouji1" unicode="&#58950;" d="M371.795592 221.821388v396.329796h277.629388v-396.329796h-277.629388z m139.776-79.46449a20.103837 20.103837 0 1 0 0 40.207673 20.103837 20.103837 0 0 0 0-40.207673zM433.068408 647.836735c0 4.785633 3.834776 9.571265 9.571265 9.571265 4.796082 0 9.571265-3.824327 9.571266-9.571265a9.592163 9.592163 0 0 0-9.571266-9.571266c-5.746939 0-10.532571 3.824327-9.571265 9.571266z m38.29551-10.532572v20.103837h78.503184v-20.103837H471.353469z m177.110204 39.246368H373.718204s-39.256816 0-39.256816-41.16898v-493.024653s-3.824327-40.207673 37.334204-40.207674h278.590694s38.29551 0 38.29551 39.246368V636.342857s1.912163 41.16898-40.207674 40.207674zM512-122.77551C232.113633-122.77551 5.22449 104.113633 5.22449 384S232.113633 890.77551 512 890.77551 1018.77551 663.886367 1018.77551 384 791.886367-122.77551 512-122.77551z m0 10.448979c274.118531 0 496.326531 222.208 496.326531 496.326531S786.118531 880.326531 512 880.326531 15.673469 658.118531 15.673469 384 237.881469-112.326531 512-112.326531z"  horiz-adv-x="1024" />

    
    <glyph glyph-name="h_ic_guanbi" unicode="&#58946;" d="M457.728 384l-153.9072-153.856a38.4 38.4 0 0 1 54.272-54.272L512 329.6256l153.856-153.856a38.4 38.4 0 0 1 54.272 54.272L566.3744 384l153.856 153.856a38.4 38.4 0 0 1-54.272 54.272L512 438.3744 358.144 592.1792a38.4 38.4 0 1 1-54.272-54.272L457.6256 384zM512-128C229.2224-128 0 101.2224 0 384S229.2224 896 512 896s512-229.2224 512-512-229.2224-512-512-512z"  horiz-adv-x="1024" />

    
    <glyph glyph-name="h_ic_liaotian" unicode="&#58947;" d="M566.7328 82.2784a128 128 0 0 0 101.7344 50.3296h165.12a113.664 113.664 0 0 1 113.6128 113.664V691.2A128 128 0 0 1 819.2 819.2H204.8A128 128 0 0 1 76.8 691.2v-457.4208c0-55.8592 45.312-101.1712 101.1712-101.1712H333.312a128 128 0 0 0 94.72-41.9328l78.848-86.7328 59.8528 78.336zM204.8 896h614.4a204.8 204.8 0 0 0 204.8-204.8v-444.928a190.464 190.464 0 0 0-190.464-190.464h-165.0688a51.2 51.2 0 0 1-40.704-20.1216L512-115.8656l-140.8 154.88a51.2 51.2 0 0 1-37.888 16.7936H177.9712A177.9712 177.9712 0 0 0 0 233.7792V691.2a204.8 204.8 0 0 0 204.8 204.8zM204.8 555.6736a38.4 38.4 0 0 0 0 76.8h614.4a38.4 38.4 0 1 0 0-76.8H204.8zM204.8 319.3344a38.4 38.4 0 1 0 0 76.8h252.928a38.4 38.4 0 0 0 0-76.8H204.8z"  horiz-adv-x="1024" />

    
    <glyph glyph-name="h_ic_xinzeng" unicode="&#58949;" d="M435.2 793.6a76.8 76.8 0 0 0 153.6 0v-819.2a76.8 76.8 0 0 0-153.6 0V793.6zM102.4 307.2a76.8 76.8 0 0 0 0 153.6h819.2a76.8 76.8 0 0 0 0-153.6H102.4z"  horiz-adv-x="1024" />

    
    <glyph glyph-name="h_ic_shanchu" unicode="&#58951;" d="M968.021333 709.905067c28.603733 0 54.818133-21.026133 54.818134-48.469334 0-27.306667-23.893333-48.3328-54.818134-48.3328h-90.658133v-542.72c0-103.082667 0-185.1392-152.576-185.1392H298.052267c-152.644267 0-152.644267 84.104533-152.644267 185.1392v542.72H54.818133C23.893333 613.102933 0 634.129067 0 661.504c0 27.306667 23.893333 48.401067 54.818133 48.401067h252.7232C309.930667 812.987733 405.2992 895.044267 522.24 895.044267c116.736 0 212.1728-82.056533 214.562133-185.1392h231.287467z m-248.0128-734.208c64.375467 0 59.5968 37.888 59.5968 94.685866v542.72H243.165867v-542.72c0-56.797867 2.389333-94.685867 59.5968-94.685866h417.245866zM519.7824 804.522667c59.5968 0 109.636267-39.936 112.0256-92.501334H407.688533c4.778667 50.517333 52.497067 92.501333 112.093867 92.501334zM417.245867 478.481067c-26.2144 0-45.329067-23.1424-45.329067-50.517334v-286.037333c0-27.374933 19.114667-50.517333 45.329067-50.517333s45.2608 23.1424 45.2608 50.517333v286.037333c0 27.374933-21.435733 50.517333-45.2608 50.517334z m188.347733 0c-26.2144 0-45.329067-23.1424-45.329067-50.517334v-286.037333c0-27.374933 21.504-50.517333 45.329067-50.517333 26.2144 0 45.329067 23.1424 45.329067 50.517333v286.037333a46.216533 46.216533 0 0 1-45.329067 50.517334z"  horiz-adv-x="1024" />

    
    <glyph glyph-name="h_ic_yingcang" unicode="&#58952;" d="M512-128C229.2224-128 0 101.2224 0 384S229.2224 896 512 896s512-229.2224 512-512-229.2224-512-512-512z m-268.8 435.2h512a38.4 38.4 0 1 1 0 76.8h-512a38.4 38.4 0 1 1 0-76.8z"  horiz-adv-x="1024" />

    
    <glyph glyph-name="h_ic_tupian" unicode="&#58953;" d="M141.824 517.888a126.0544 126.0544 0 1 1 252.0576 0 126.0544 126.0544 0 0 1-252.1088 0zM928.0512 896H95.9488C42.9568 896 0 847.36 0 788.1216v-792.4736c0-59.904 43.008-107.8784 95.9488-107.8784h832.1024c52.992 0 95.9488 48.64 95.9488 107.8784V788.1216C1024 847.4112 981.0432 896 928.0512 896zM64.1536 788.1216c0 20.1728 14.1312 36.1472 31.744 36.1472h832.1536c17.664 0 31.7952-15.9744 31.7952-36.1472v-424.3968c-51.7632 47.4112-141.2096 112.0256-248.32 112.0256-98.8672 0-196.608-86.528-290.7648-169.5232-72.3456-64-147.0976-129.792-199.4752-129.792-73.5744 0-136.5504 61.0304-157.696 84.1728V788.1216h0.512z"  horiz-adv-x="1024" />

    
    <glyph glyph-name="h_ic_bianji" unicode="&#58954;" d="M250.129067 95.6416c20.48-1.365333 41.1648 4.778667 57.890133 18.568533l5.666133 1.911467-177.220266 177.220267-1.6384-5.666134a81.7152 81.7152 0 0 1-18.568534-57.890133l-62.805333-196.949333 196.676267 62.805333z m641.911466 718.165333l-58.094933 58.094934a82.056533 82.056533 0 0 1-116.053333 0l-55.978667-56.456534 173.8752-173.8752 56.251733 56.251734a82.1248 82.1248 0 0 1 0 115.985066z m-116.053333-232.0384L602.112 755.712 197.973333 351.4368l173.8752-174.08 404.2752 404.411733zM0-93.525333h1023.317333v73.181866H0z"  horiz-adv-x="1024" />

    
    <glyph glyph-name="ic_dianpu_feilei" unicode="&#58955;" d="M758.390154 335.583179h-149.031385a46.500103 46.500103 0 0 1-46.552615-46.605128v-149.005128a195.610256 195.610256 0 0 1 195.584-195.610256 195.610256 195.610256 0 0 1 0 391.220512z m0 52.512821a248.123077 248.123077 0 0 0 248.123077-248.123077 248.123077 248.123077 0 0 0-248.123077-248.123077 248.123077 248.123077 0 0 0-248.123077 248.123077v148.952615a99.012923 99.012923 0 0 0 99.117949 99.170462h149.005128zM443.733333 139.972923v149.031385a46.500103 46.500103 0 0 1-46.578871 46.578871H248.123077a195.610256 195.610256 0 1 1 195.610256-195.610256z m52.512821 0a248.123077 248.123077 0 0 0-248.123077-248.123077 248.123077 248.123077 0 0 0 0 496.246154h149.005128a99.065436 99.065436 0 0 0 99.117949-99.117949v-149.005128zM252.192821 452.266667h149.031384a46.526359 46.526359 0 0 1 46.578872 46.605128V647.876923A195.610256 195.610256 0 0 1 252.192821 843.487179a195.584 195.584 0 0 1-195.610257-195.610256 195.610256 195.610256 0 0 1 195.610257-195.610256z m0-52.512821a248.123077 248.123077 0 0 0-248.123077 248.123077C4.096 784.935385 115.160615 896 252.219077 896a248.123077 248.123077 0 0 0 248.123077-248.123077v-148.952615A98.986667 98.986667 0 0 0 401.197949 399.753846H252.192821zM566.875897 647.876923v-149.057641a46.44759 46.44759 0 0 1 46.578872-46.552615h149.005128a195.610256 195.610256 0 1 1-195.610256 195.610256z m-52.51282 0A248.123077 248.123077 0 0 0 762.459897 896c137.058462 0 248.123077-111.064615 248.123077-248.123077a248.123077 248.123077 0 0 0-248.123077-248.123077h-148.978871a98.986667 98.986667 0 0 0-99.117949 99.091692V647.876923z"  horiz-adv-x="1024" />

    
    <glyph glyph-name="ic_xinhuode1" unicode="&#58956;" d="M1024 896L0-128V418.695529L477.304471 896H1024zM214.678588 509.494212c-9.360565-23.684518-24.021835-46.176376-44.297035-67.126212l72.920847-72.920847c25.057882-26.744471 39.875765-52.476988 44.465694-77.173459l17.889882-0.518023c-5.107953 29.647812-21.973835 59.464282-50.428988 89.630117l-20.2752 20.263153 25.214494 25.214494 90.979389-90.979388 12.095247 12.095247-90.979389 90.979388 17.721224 17.709177-11.757929 11.769976-55.018918-55.030964-31.00913 31.009129c17.371859 19.419859 30.322447 39.514353 39.514353 60.307576l-17.034541 4.770636zM85.895529 354.448565l11.239906-11.239906 76.836141 76.836141-11.239905 11.251953-32.201789-32.201788a282.684235 282.684235 0 0 1-24.190494 9.54127l-10.56527-14.649223c7.324612-1.542024 14.817882-3.927341 22.660517-6.987294L85.895529 354.460612z m36.972424-40.369694l11.083294-11.083295 34.4064 34.418448 19.082541-19.070495-31.683764-31.683764 11.239905-11.251953 31.683765 31.683764 45.321035-45.321035c4.096-4.096 3.915294-8.348612-0.518023-12.769882a59.669082 59.669082 0 0 0-8.517271-6.818635l13.974589-8.854589 9.203952 9.191906c9.878588 9.878588 10.215906 19.419859 1.024 28.623812l-48.224376 48.212329 29.997176 29.997177-11.251952 11.239906-29.997177-29.997177-19.070494 19.094588 32.888471 32.888471-11.083295 11.0592-19.2512-19.2512c-2.553976 9.035294-6.300612 18.576565-10.902588 28.623812l-14.817882-7.324612a287.081412 287.081412 0 0 0 14.649223-32.370447l-18.745223-18.745224c-11.926588 6.481318-22.648471 11.083294-32.201788 14.143248l-6.987295-14.817883c9.372612-2.553976 18.913882-5.963294 28.286495-10.227953l-19.588518-19.588517z m65.246871-35.948424c11.251953-18.745224 19.082541-38.165082 23.3472-58.428235l16.697223 3.734588c-4.939294 20.624565-13.637271 41.923765-26.407153 63.548235l-13.63727-8.854588z m47.706352 50.091671l-7.49327-12.950589a331.920565 331.920565 0 0 0 43.441694-19.588517l6.300612 14.1312c-11.926588 6.481318-26.057788 12.444612-42.249036 18.407906z m18.576565 198.137976l11.071247-11.083294 39.875765 39.875765 12.420518-12.432565 12.61327 12.601224-12.432565 12.444611 44.971671 44.971671 12.432565-12.432565 12.61327 12.601224-12.432564 12.444611 39.863717 39.863718-11.083294 11.083294-39.863717-39.875764-13.974589 13.974588-12.601223-12.613271 13.974588-13.974588-44.983718-44.971671-13.974588 13.974589-12.601223-12.613271 13.974588-13.974588-39.875765-39.863718zM329.848471 546.635294c1.529976-10.733929 2.048-21.130541 1.867294-31.177788a101.110965 101.110965 0 0 1-34.069083-2.385318l-1.361317-16.697223a96.557176 96.557176 0 0 0 34.069082 3.072c-1.698635-13.974588-5.625976-27.780518-11.420612-41.743059l16.697224-3.746635c5.288659 15.504565 8.866635 29.635765 10.902588 42.249035 7.505318-2.048 14.817882-5.288659 22.491859-9.541271 1.204706-19.2512-2.385318-40.5504-10.902588-63.367529l16.697223-3.421365c6.144 19.082541 9.372612 37.996424 9.203953 56.560941 5.445271-4.083953 10.902588-8.854588 16.347859-14.311906 11.083294-11.408565 17.383906-19.757176 18.913882-25.383152 1.024-4.421271-0.505976-9.035294-4.770635-13.287906-5.782588-5.782588-11.757929-11.071247-17.540518-15.841883l14.649224-7.830588c4.252612 3.915294 9.709929 9.023247 16.528565 15.841882 6.300612 6.300612 9.360565 12.769882 9.191905 19.419859-1.361318 10.215906-9.541271 22.829176-24.527811 37.827765-20.612518 20.600471-42.261082 33.731765-64.740894 39.514353 0.674635 11.589271 0 24.202541-1.710683 38.165082L329.860518 546.635294z m42.767058-16.865882l11.565177-11.589271 34.430494 34.418447c21.805176-27.949176 30.840471-62.186918 27.250447-102.905976l17.046588-0.674636c3.577976 34.237741-2.734682 66.439529-18.913882 96.256 29.635765-16.697224 61.680941-22.491859 96.087341-17.709176l-1.024 17.371859c-36.4544-6.481318-71.896847 1.011953-106.315294 21.805176l38.165082 38.165083-11.577223 11.577223-39.189083-39.177035c-10.733929 11.071247-20.106541 20.781176-28.117835 28.79247l-12.263906-12.275952c6.649976-6.637929 16.022588-16.347859 27.949177-28.96113L372.615529 529.769412z m32.876424 96.942682l-3.577977-14.817882c16.347859 0.337318 30.322447-0.686682 41.911718-2.734683l2.722635 15.673224c-10.733929 1.529976-24.359153 2.216659-41.056376 1.879341z m110.905223 18.564518l71.55953-71.55953 11.926588 11.926589-84.510118 84.510117a182.151529 182.151529 0 0 1-8.673882 38.671059l-15.347953-5.782588c8.866635-25.226541 10.902588-53.850353 6.312659-85.365459l15.323859-8.179953c2.048 12.275953 3.072 24.202541 3.409317 35.779765z m-69.174211 100.520659c7.505318-23.853176 8.348612-50.934965 2.566023-81.269459l15.504565-8.348612c6.987294 35.611106 5.963294 67.306918-3.072 95.075388l-14.998588-5.457317z m28.455153 16.191247l54.356329-54.35633 80.582777 80.594824-54.35633 54.332235-80.582776-80.570729z m113.302588 24.359153l-57.078965-57.078965-12.601223 12.61327 57.066917 57.066918 12.613271-12.601223z m-79.0528-35.093083l-12.613271 12.601224L554.405647 820.946824l12.601224-12.613271-57.066918-57.066918z m24.69647-63.210917l10.73393-10.73393 65.596235 65.596235 14.480565-14.480564-71.728188-71.728188 10.733929-10.73393 71.728188 71.728188 29.816471-29.81647c4.096-4.096 3.915294-8.685929-0.686682-13.287906-5.445271-5.457318-11.408565-10.733929-18.058542-16.359906l14.143247-9.035294 18.913883 18.913882c9.878588 9.878588 10.047247 19.600565 0.674635 28.96113l-32.707765 32.719811 24.539859 24.527812-10.733929 10.73393-24.539859-24.527812-14.480565 14.480565 20.612518 20.612517-10.721882 10.73393-98.304-98.304z m58.958306-23.166495l-2.566023-15.167247c17.721224 0 33.563106-1.192659 47.031717-3.409317l2.891295 15.841882c-12.432565 2.216659-28.286494 3.072-47.356989 2.734682z"  horiz-adv-x="1024" />

    
    <glyph glyph-name="ic_kuaiguoqi1" unicode="&#58957;" d="M1018.046512 889.867907l-1012.093024-1012.093023v540.338604L477.707907 889.879814H1018.046512zM156.802977 409.957209l11.275907-11.287814 29.981767 29.969861 14.645582-14.645582c8.751628-8.751628 16.50307-17.860465 23.063814-26.77879l-35.018419-35.018419 11.787907-11.787907 32.660837 32.660837c19.027349-31.815442 23.242419-64.321488 13.133395-97.327628l17.348466-2.524279c9.597023 35.197023 4.88186 69.893953-14.478884 104.400372 34.518326-13.300093 71.060837-16.157767 109.615628-8.930232l-1.178791 17.693767c-36.875907-8.596837-72.061023-6.739349-105.412465 5.715349l45.972837 45.972837-11.787907 11.787907-13.133395-13.133395-50.842791 50.854698-35.875721-35.863814-25.433302 25.421395-11.787907-11.787907 25.433302-25.421395-29.96986-29.969861z m53.033674 30.481861l24.087814 24.075907 39.566884-39.578791-26.100093-26.100093a249.856 249.856 0 0 1-25.421396 29.469767l-12.133209 12.121303z m-101.197395-92.112372a299.377116 299.377116 0 0 0 39.566884-52.378791l12.8 7.072744a345.897674 345.897674 0 0 1-42.091163 54.224372l-10.275721-8.930232z m38.733395 46.127628l-6.239256-11.954605a373.12893 373.12893 0 0 0 48.163721-24.921302l7.584744 12.299907c-17.68186 10.263814-34.018233 18.515349-49.509209 24.576z m-52.712186 3.881674l153.242791-153.242791 11.954604 11.966512-153.24279 153.230884-11.954605-11.954605zM254.809302 554.746047l-0.512-16.336373c21.885023 2.357581 40.578977 2.524279 56.081861 0.833489l-0.178605 17.693767c-16.50307 1.012093-35.018419 0.333395-55.403163-2.190883z m251.403907-46.651535l35.530419 35.530418-9.263628 15.324279c-3.70307-4.36986-9.430326-10.430512-16.836465-18.181953-7.751442-7.739535-15.002791-15.324279-22.397023-22.742326-13.812093-13.800186-25.6-25.242791-35.030326-34.339721-10.775814-10.109023-20.039442-17.01507-27.624186-20.206139-7.227535-2.524279-15.312372-3.536372-24.409302-3.202977a40.876651 40.876651 0 0 1-8.251535-0.500093l-63.142698 63.142698-35.863814-35.863814 11.442605-11.454512 24.254511 24.242605 51.021396-51.021396c-4.048372-10.097116-3.202977-26.766884 2.190884-50.342697l17.16986 1.012093c-6.394047 25.254698-7.239442 39.900279-3.202977 43.936744 2.190884 2.202791 5.893953 3.214884 11.121117 2.702884 11.454512-0.666791 21.885023 1.345488 30.981953 6.405953 8.751628 5.048558 19.027349 13.300093 30.648558 24.576 11.454512 11.121116 22.063628 21.38493 31.660651 30.981954z m-27.624186 17.515162c10.109023 10.109023 10.275721 20.372837 0.512 30.148466l-74.430511 74.418604 24.921302 24.933209-11.954605 11.954605-24.921302-24.921302-27.278884 27.266977-12.299907-12.288 27.278884-27.266977-63.642791-63.666605 11.954605-11.954604 63.654698 63.654697 71.56093-71.56093c4.548465-4.548465 4.381767-9.430326-0.333395-14.145488a493.663256 493.663256 0 0 0-23.242419-21.551628l14.312186-8.930233 23.909209 23.909209z m-116.521674 31.994047l-3.369675-15.47907c22.563721-2.024186 41.757767-5.060465 57.927442-9.108837l3.036279 16.50307c-15.157581 3.714977-34.351628 6.405953-57.594046 8.096744z m59.606325 167.721674l18.860652-18.860651-10.442419-10.442418 11.287814-11.275907 10.442419 10.430511 71.227534-71.227535-12.299907-12.288 11.454512-11.454511 79.657674 79.657674-11.454511 11.442605-10.954419-10.954419-71.227535 71.239442 10.109024 10.097116-11.287814 11.287814-10.097117-10.109023-18.527255 18.527256-11.787907-11.787907 18.527255-18.515349-32.839441-32.839442-18.860652 18.860651-11.787907-11.787907z m113.163907-89.588093l-16.503069 16.50307 32.839441 32.839442 16.491163-16.50307-32.827535-32.839442z m-38.4 104.066977l16.848372-16.836465-32.839441-32.839442-16.836465 16.836465 32.827534 32.839442z m11.287814-76.954791l-16.669767 16.669768 32.839442 32.839442 16.669767-16.669768-32.839442-32.839442z m72.751628-13.133395l-3.548279-15.324279c17.68186-2.524279 33.172837-5.893953 46.139535-10.097116l2.524279 15.312372a4.977116 4.977116 0 0 0 0.345302-1.678884l17.848559 0.678698c-3.70307 25.921488-15.324279 51.021395-35.197024 75.609302l32.672745 32.660837 34.518325-34.530232c5.048558-5.036651 5.381953-9.763721 1.012093-14.133582-5.39386-5.39386-11.454512-10.775814-18.027163-16.669767l15.324279-8.58493 17.860466 17.848558c9.763721 9.763721 9.930419 19.69414 0.333395 29.291163L560.258977 852.134698 504.355721 796.219535l78.812279-78.812279c23.230512-23.909209 37.387907-49.175814 41.924465-75.942698-11.621209 3.202977-26.600186 6.072558-44.627349 8.251535z m-33.018046-32.672744a174.913488 174.913488 0 0 0 7.418046-51.521489l16.50307 2.690977c-0.512 17.348465-3.714977 35.363721-9.430326 53.890977l-14.49079-5.060465z m20.884837 139.097302l31.827349 31.827349 29.96986-29.981767-31.994046-31.994047c-1.345488 1.345488-2.524279 2.857674-4.048372 4.381767l-25.754791 25.766698z m20.718139 42.936558l-31.827348-31.827349-29.469768 29.469768 31.827349 31.827349 29.469767-29.469768z"  horiz-adv-x="1024" />

    
    <glyph glyph-name="ic_lishisousuo1" unicode="&#58958;" d="M546.133333 315.733333V581.256533C546.133333 604.2624 530.8416 622.933333 512 622.933333s-34.133333-18.670933-34.133333-41.6768v-292.113066c0-1.467733 0.068267-2.901333 0.170666-4.334934a30.958933 30.958933 0 0 1 10.820267-26.3168 30.958933 30.958933 0 0 1 26.350933-10.8544c1.4336-0.1024 2.8672-0.170667 4.334934-0.170666h292.113066c23.005867 0 41.6768 15.291733 41.6768 34.133333s-18.670933 34.133333-41.6768 34.133333H546.133333z m-34.133333-443.733333C229.239467-128 0 101.239467 0 384 0 666.760533 229.239467 896 512 896c282.760533 0 512-229.239467 512-512 0-282.760533-229.239467-512-512-512z"  horiz-adv-x="1024" />

    
    <glyph glyph-name="ic_qingchu1" unicode="&#58959;" d="M302.318933 700.689067H206.2336v-718.6432c0-17.92 13.448533-31.607467 29.696-31.607467h544.529067c15.701333 0 29.696 14.506667 29.696 31.607467V700.689067H302.353067z m-31.163733 64C274.7392 837.870933 333.789867 896 405.845333 896h204.731734c72.055467 0 131.072-58.129067 134.690133-131.310933h205.141333c17.6128 0 31.880533-14.336 31.880534-32.017067a31.914667 31.914667 0 0 0-31.8464-31.982933h-76.526934v-718.6432c0-52.053333-42.1888-95.573333-93.457066-95.573334H235.9296c-51.6096 0-93.422933 42.496-93.422933 95.573334V700.689067H65.979733A31.914667 31.914667 0 0 0 34.133333 732.672c0 17.681067 14.267733 32.017067 31.8464 32.017067h205.141334z m63.829333 0h346.453334c-3.447467 38.024533-34.2016 67.310933-70.8608 67.310933H405.845333c-36.6592 0-67.413333-29.2864-70.826666-67.310933z m-37.2736-240.776534c0 17.681067 14.267733 31.982933 31.8464 31.982934 17.6128 0 31.880533-14.336 31.880534-31.982934v-396.6976a31.914667 31.914667 0 0 0-31.880534-32.017066 31.914667 31.914667 0 0 0-31.8464 32.017066V523.912533z m179.3024 0c0 17.681067 14.267733 31.982933 31.880534 31.982934 17.578667 0 31.8464-14.336 31.8464-31.982934v-396.6976a31.914667 31.914667 0 0 0-31.8464-32.017066 31.914667 31.914667 0 0 0-31.880534 32.017066V523.912533z m177.9712 0c0 17.681067 14.267733 31.982933 31.8464 31.982934 17.6128 0 31.880533-14.336 31.880534-31.982934v-396.6976a31.914667 31.914667 0 0 0-31.880534-32.017066 31.914667 31.914667 0 0 0-31.8464 32.017066V523.912533z"  horiz-adv-x="1024" />

    
    <glyph glyph-name="ic_renmensousuo" unicode="&#58960;" d="M687.808-102.304c471.552 250.56 112.864 766.08 44.48 814.4 23.904-52.192 27.136-138.88-20.608-180.544C633.536 837.12 440.352 896 440.352 896c23.872-156.096-81.408-326.656-182.88-454.976-3.232 62.208-6.496 104.448-40.704 166.656C210.272 493.76 125.6 403.2 101.76 288.8c-30.4-156.096 61.888-308.32 230.624-383.328 0 0 197.536-69.44 355.456-7.776"  horiz-adv-x="1024" />

    
    <glyph glyph-name="ic_dianpu" unicode="&#58961;" d="M853.674667 365.665524c9.923048 3.82781 19.504762 8.801524 28.476952 14.774857 46.421333 31.012571 68.461714 88.673524 56.612571 143.920762l-56.271238 216.380952c-1.097143 5.095619-6.022095 8.97219-11.946666 8.972191H168.838095a12.288 12.288 0 0 1-12.214857-9.97181l-55.832381-214.625524c-11.142095-51.785143 6.192762-104.838095 45.592381-136.704 3.096381-2.486857 6.095238-4.705524 9.142857-6.802285 33.475048-23.04 79.555048-22.674286 114.663619 0.390095l51.687619 66.023619a30.403048 30.403048 0 0 0 47.591619 0.243809c25.283048-31.524571 61.147429-61.756952 100.888381-74.873904 57.880381-19.090286 114.517333 1.926095 171.593143 81.334857 9.411048 13.019429 27.721143 17.310476 41.886476 7.801905l3.730286-3.120762L780.190476 365.494857c19.577905-11.410286 44.885333-10.947048 73.484191 0.170667z m-549.644191-19.553524l-2.925714-2.072381c-51.833905-36.473905-121.758476-38.009905-173.104762-2.657524a190.390857 190.390857 0 0 0-12.190476 9.069715c-54.125714 43.76381-77.58019 115.565714-62.415238 185.929142l55.832381 214.625524C115.175619 778.800762 140.190476 798.47619 168.838095 798.47619h701.68381c28.672 0 53.638095-19.675429 59.392-46.445714l56.246857-216.405333c16.237714-75.434667-13.55581-153.380571-76.995048-195.754667a196.705524 196.705524 0 0 0-37.888-19.675428c-42.837333-16.65219-84.74819-16.798476-119.56419 5.558857l-4.193524 3.413333-78.921143 80.018286c-65.828571-82.407619-139.483429-106.544762-213.528381-82.090667-42.73981 14.116571-79.676952 41.862095-108.617143 73.216l-42.422857-54.198857zM858.819048 371.2h48.761904v-295.545905c0-59.099429-45.982476-107.446857-103.350857-107.446857H226.255238c-57.368381 0-103.326476 48.347429-103.326476 107.446857V371.2h48.761905v-295.545905c0-32.694857 24.697905-58.684952 54.564571-58.684952h577.999238c29.866667 0 54.588952 25.990095 54.588953 58.684952V371.2z"  horiz-adv-x="1024" />

    
    <glyph glyph-name="ic_dianputouxiang" unicode="&#58962;" d="M852.164923 370.963692c9.452308 3.820308 18.589538 8.782769 27.136 14.729846 43.874462 30.72 64.827077 88.142769 53.287385 144.344616L874.220308 814.08H140.366769L81.959385 529.723077c-10.633846-51.790769 5.828923-104.605538 43.008-136.073846 2.953846-2.481231 5.789538-4.726154 8.704-6.813539 29.735385-21.425231 70.813538-21.504 102.675692-0.630154l52.775385 70.498462a44.583385 44.583385 0 0 0 71.68 0.393846c24.969846-32.571077 60.652308-64.118154 99.24923-77.430154 54.547692-18.904615 107.638154 1.732923 164.076308 83.968 14.060308 20.361846 41.629538 27.175385 63.015385 12.051693l6.025846-5.238154 95.665231-101.612308c16.147692-9.058462 37.809231-8.310154 63.330461 2.087385zM291.052308 325.986462l-4.726154-3.505231c-59.037538-43.52-138.712615-45.292308-197.356308-3.032616a214.449231 214.449231 0 0 0-13.666461 10.633847C14.493538 381.558154-11.736615 465.762462 4.923077 546.894769l58.722461 285.735385C71.286154 869.730462 103.108923 896 139.657846 896h735.232c36.588308 0 68.411077-26.269538 76.012308-63.369846l58.722461-285.459692c18.116923-88.300308-15.202462-179.672615-86.44923-229.494154a216.615385 216.615385 0 0 0-42.377847-23.04c-48.679385-19.810462-97.161846-19.968-137.964307 7.443692l-6.695385 5.710769-71.916308 76.327385c-70.104615-84.873846-149.464615-109.646769-229.021538-82.156308-41.984 14.493538-78.493538 41.038769-108.307692 71.916308l-35.84-47.891692zM858.033231 343.433846h78.769231v-332.957538c0-70.537846-55.138462-127.606154-123.116308-127.606154H200.782769c-67.938462 0-123.116308 57.068308-123.116307 127.606154V343.433846h78.76923v-332.957538c0-25.206154 19.810462-45.686154 44.347077-45.686154H813.686154c24.536615 0 44.347077 20.48 44.347077 45.686154V343.433846z"  horiz-adv-x="1024" />

    
    <glyph glyph-name="ic_gendguo" unicode="&#58963;" d="M828.952381 7.241143V736.377905A13.58019 13.58019 0 0 1 815.591619 749.714286H199.850667C196.510476 749.714286 195.047619 747.52 195.047619 736.377905v-729.136762c0-11.142095 1.462857-13.336381 4.803048-13.336381h615.740952c7.289905 0 13.360762 6.217143 13.360762 13.336381z m48.761905 0A62.317714 62.317714 0 0 0 815.591619-54.857143H199.850667C164.449524-54.857143 146.285714-27.648 146.285714 7.241143V736.377905C146.285714 771.267048 164.449524 798.47619 199.850667 798.47619h615.740952A62.317714 62.317714 0 0 0 877.714286 736.377905v-729.136762z m-613.961143 216.405333a24.380952 24.380952 0 0 0 0 48.761905h496.493714a24.380952 24.380952 0 1 0 0-48.761905H263.753143z m186.197333 278.503619a24.380952 24.380952 0 1 0 0 48.761905h310.296381a24.380952 24.380952 0 1 0 0-48.761905H449.950476z m-186.197333 0a24.380952 24.380952 0 0 0 0 48.761905h62.073905a24.380952 24.380952 0 1 0 0-48.761905h-62.073905z"  horiz-adv-x="1024" />

    
    <glyph glyph-name="ic_huishouye" unicode="&#58964;" d="M621.958095 104.764952H396.263619V211.870476c0 64.536381 50.614857 117.028571 112.88381 117.028572 62.22019 0 112.859429-52.49219 112.859428-117.028572v-107.105524z m252.830476 387.291429L559.299048 757.51619l-0.853334 0.682667a84.504381 84.504381 0 0 1-98.694095 0L143.555048 492.178286A58.831238 58.831238 0 0 1 121.904762 446.512762v-362.788572c0-45.763048 35.913143-83.017143 80.067048-83.017142h614.253714c44.153905 0 80.067048 37.254095 80.067047 83.041523v362.788572c0 17.65181-8.045714 34.669714-21.504 45.519238z"  horiz-adv-x="1024" />

    
    <glyph glyph-name="ic_kefu" unicode="&#58965;" d="M119.710476 126.07390499999997C58.148571 200.38704800000005 24.380952 289.913905 24.380952 384c0 243.175619 224.451048 438.857143 499.809524 438.857143S1024 627.175619 1024 384s-224.451048-438.857143-499.809524-438.857143c-18.407619 0-41.106286 2.730667-69.144381 7.753143a1230.677333 1230.677333 0 0 0-30.159238 5.851429c-6.534095 1.340952-41.22819 8.704-48.737524 10.166857a198.241524 198.241524 0 0 1-13.360762 2.267428c-138.556952-28.111238-210.310095-36.498286-235.203047-23.161904-29.354667 15.725714-31.085714 48.737524-21.723429 110.372571 0.975238 6.436571 2.048 13.04381 3.486476 21.382095l3.876572 22.503619c1.29219 7.704381 2.169905 13.531429 2.730667 18.383238a82.16381 82.16381 0 0 1 0.78019 11.093334c0.024381-0.731429 0.316952-2.048 2.194286-4.632381l0.78019-1.048381z m239.518476-106.008381c2.633143 0.121905 5.36381-0.024381 8.533334-0.365714 4.510476-0.487619 10.166857-1.462857 17.724952-2.925715 7.972571-1.560381 43.032381-9.020952 49.176381-10.264381 10.654476-2.194286 20.065524-4.022857 29.013333-5.607619C489.081905-3.657143000000019 509.318095-6.095237999999995 524.190476-6.095237999999995 773.973333-6.095237999999995 975.238095 169.350095 975.238095 384S773.973333 774.095238 524.190476 774.095238 73.142857 598.649905 73.142857 384c0-82.724571 29.866667-161.645714 84.699429-227.523048 8.655238-10.410667 9.020952-21.040762 6.534095-41.593904-0.682667-5.753905-1.657905-12.263619-3.047619-20.650667l-3.900952-22.723048c-1.414095-8.045714-2.438095-14.360381-3.364572-20.431238-5.583238-36.742095-4.388571-59.562667-3.462095-60.074666 9.020952-4.827429 81.65181 3.584 198.534095 27.160381 3.120762 1.26781 6.41219 1.731048 10.093714 1.901714zM316.952381 432.761905a24.380952 24.380952 0 1 0 0 48.761905h414.47619a24.380952 24.380952 0 0 0 0-48.761905H316.952381zM414.47619 262.095238a24.380952 24.380952 0 1 0 0 48.761905h219.428572a24.380952 24.380952 0 0 0 0-48.761905h-219.428572z"  horiz-adv-x="1024" />

    
    <glyph glyph-name="ic_lishiliulan" unicode="&#58966;" d="M459.55072 177.99168a100.82304 100.82304 0 0 1-31.49824 77.08672l-83.21024 60.78464c-67.87072 49.5616-95.39584 137.3184-64.83968 214.528 16.67072 42.0864 49.152 78.68416 95.86688 99.98336 57.1392 26.07104 123.84256 39.46496 188.06784 39.46496 161.95584 0 294.44096-129.49504 294.44096-287.744v-184.48384c0-158.26944-132.5056-287.744-294.44096-287.744-146.08384 0-110.20288 128.77824-104.38656 268.12416zM323.82976 733.04064c0-66.06848-54.14912-119.64416-120.95488-119.64416C136.06912 613.376 81.92 666.97216 81.92 733.04064 81.92 799.1296 136.06912 852.70528 202.87488 852.70528c66.80576 0 120.95488-53.57568 120.95488-119.66464z m206.15168 49.72544a69.98016 69.98016 0 1 0-139.96032 0 69.98016 69.98016 0 0 0 139.96032 0zM778.24 762.88a71.68 71.68 0 1 0-143.36 0 71.68 71.68 0 0 0 143.36 0z m112.64-174.08a71.68 71.68 0 1 0 0 143.36 71.68 71.68 0 0 0 0-143.36z"  horiz-adv-x="1024" />

    
    <glyph glyph-name="ic_shangpshoucang" unicode="&#58967;" d="M327.68 650.24c0 113.11104 91.68896 204.8 204.8 204.8s204.8-91.68896 204.8-204.8h81.92a102.4 102.4 0 0 0 102.4-102.4v-552.96a102.4 102.4 0 0 0-102.4-102.4H225.28a102.4 102.4 0 0 0-102.4 102.4V547.84a102.4 102.4 0 0 0 102.4 102.4h102.4z m71.68 0h266.24a133.12 133.12 0 1 1-266.24 0z m292.33152-372.16256c18.26816 63.85664-20.60288 115.11808-62.27968 123.98592-40.26368 8.3968-72.58112-5.12-97.40288-38.7072-24.82176 33.5872-56.19712 47.104-96.4608 38.7072-41.6768-8.86784-80.54784-60.12928-62.2592-123.98592C395.264 201.64608 476.28288 164.82304 532.48 117.76c56.19712 47.06304 137.216 83.88608 159.21152 160.31744z"  horiz-adv-x="1024" />

    
    <glyph glyph-name="ic_shoucang" unicode="&#58968;" d="M748.251429-6.095238c6.997333 0 13.458286 2.072381 19.114666 6.144 9.679238 6.92419 14.701714 19.139048 12.678095 30.72l-37.473523 215.673905a52.272762 52.272762 0 0 0 15.262476 46.787047l159.036952 152.868572c8.557714 8.240762 11.776 21.089524 8.118857 32.182857a31.695238 31.695238 0 0 1-26.038857 21.577143l-197.973333 28.379428a95.110095 95.110095 0 0 0-71.582476 51.590096l-88.332191 176.518095A31.939048 31.939048 0 0 1 512.048762 774.095238c-12.629333 0-23.552-6.729143-29.013333-17.700571l-88.429715-176.591238a95.012571 95.012571 0 0 0-71.509333-51.541334l-198.046476-28.403809a31.695238 31.695238 0 0 1-26.014476-21.552762c-3.681524-11.142095-0.487619-23.966476 8.045714-32.182857l159.085714-152.868572c12.55619-12.068571 18.285714-29.622857 15.286857-46.689524l-37.546666-215.82019c-2.925714-16.774095 8.484571-33.328762 26.526476-36.327619 6.826667-1.097143 15.506286 0.609524 24.697905 5.363809l173.177904 89.795048a95.110095 95.110095 0 0 0 87.478857 0l177.371429-92.013714c4.559238-2.364952 9.849905-3.657143 15.116191-3.657143z m0-48.761905a81.92 81.92 0 0 0-37.546667 9.118476l-177.371429 92.013715a46.32381 46.32381 0 0 1-42.593523 0l-173.177905-89.770667c-16.920381-8.777143-36.205714-13.287619-55.02781-10.191238a80.359619 80.359619 0 0 0-66.657524 92.818286l37.546667 215.771428a3.535238 3.535238 0 0 1-1.048381 3.169524l-159.085714 152.868571a80.408381 80.408381 0 0 0-20.577524 82.651429 80.457143 80.457143 0 0 0 65.389714 54.515809l198.070857 28.428191a46.275048 46.275048 0 0 1 34.840381 25.112381l88.405334 176.566857A80.62781 80.62781 0 0 0 512 822.857143a80.700952 80.700952 0 0 0 72.630857-44.665905l88.332191-176.542476a46.32381 46.32381 0 0 1 34.864762-25.136762l198.022095-28.40381a80.457143 80.457143 0 0 0 65.414095-54.54019 80.432762 80.432762 0 0 0-20.553143-82.578286l-159.110095-152.917333a3.535238 3.535238 0 0 1-1.024-3.169524l37.497905-215.771428a80.359619 80.359619 0 0 0-32.377905-78.750477 80.749714 80.749714 0 0 0-47.445333-15.238095z"  horiz-adv-x="1024" />

    
    <glyph glyph-name="ic_weixin" unicode="&#58969;" d="M371.8656 251.4944c-5.504-1.792-9.1648-3.6352-14.6688-3.6352-12.8 0-23.808 7.2704-29.2864 18.1504l-1.8432 5.4272-93.44 203.136c-1.8176 1.8176-1.8176 5.4528-1.8176 7.2704 0 9.0624 7.3216 16.3328 16.4864 16.3328 3.6608 0 7.3216-1.8176 11.008-3.6352l109.9008-78.0032a49.664 49.664 0 0 1 27.4688-9.0624c5.504 0 12.8256 1.792 18.3296 3.6352l518.4 228.5312C838.9632 748.4672 686.9504 819.2 512.9216 819.2 228.992 819.2 0 628.736 0 396.5952c0-126.976 69.632-243.0464 177.6896-319.232 9.1648-5.4272 14.6432-16.3072 14.6432-27.2128 0-3.6096 0-7.2448-1.8176-10.88-11.008-32.64-23.808-85.248-23.808-87.04-1.8432-3.6352-1.8432-9.088-1.8432-12.6976 0-9.0624 7.3216-16.3328 16.4864-16.3328a14.08 14.08 0 0 1 9.1648 3.6352l111.744 63.488c9.1392 5.4272 16.4864 7.2448 27.4688 7.2448 5.504 0 11.008 0 14.6688-1.8176 53.12-14.5152 108.0576-23.552 166.6816-23.552C795.008-27.8272 1024 162.5856 1024 394.752c0 70.7328-21.9904 137.856-58.624 195.8912L375.552 255.1296l-3.6864-3.6352z"  horiz-adv-x="1024" />

    
    <glyph glyph-name="ic_yifukuan1" unicode="&#58970;" d="M660.43904 458.62912V250.88a20.48 20.48 0 0 0-32.74752-16.384l-92.672 69.30432-92.672-69.3248A20.48 20.48 0 0 0 409.6 250.88V458.62912H143.36v-375.9104a52.224 52.224 0 0 1 51.99872-51.99872h650.3424a52.224 52.224 0 0 1 51.99872 51.99872V458.62912H660.43904z m0 40.96h237.2608v180.57216A52.224 52.224 0 0 1 845.70112 732.16h-185.26208v-232.57088zM409.6 732.16H195.35872A52.224 52.224 0 0 1 143.36 680.16128v-180.57216h266.24V732.16z m436.10112-742.4H195.35872A93.184 93.184 0 0 0 102.4 82.71872V680.16128A93.184 93.184 0 0 0 195.35872 773.12h650.3424a93.184 93.184 0 0 0 92.95872-92.95872v-597.44256a93.184 93.184 0 0 0-92.95872-92.95872zM619.47904 732.16H450.56v-440.38144l72.192 54.00576a20.48 20.48 0 0 0 24.53504 0l72.192-54.00576V732.16z"  horiz-adv-x="1024" />

    
    <glyph glyph-name="ic_youhuuiquan" unicode="&#58971;" d="M20.48 465.92v184.32a81.92 81.92 0 0 0 81.92 81.92h819.2a81.92 81.92 0 0 0 81.92-81.92v-184.32a81.92 81.92 0 1 1 0-163.84v-184.32a81.92 81.92 0 0 0-81.92-81.92H102.4a81.92 81.92 0 0 0-81.92 81.92v184.32a81.92 81.92 0 1 1 0 163.84z m256 20.48a30.72 30.72 0 1 1 0 61.44 30.72 30.72 0 0 1 0-61.44z m0-143.36a30.72 30.72 0 1 1 0 61.44 30.72 30.72 0 0 1 0-61.44z m0-143.36a30.72 30.72 0 1 1 0 61.44 30.72 30.72 0 0 1 0-61.44z"  horiz-adv-x="1024" />

    
    <glyph glyph-name="ic_shoucang1" unicode="&#58972;" d="M748.251429-30.47619c12.092952 0 23.552 3.657143 33.28 10.678857a55.978667 55.978667 0 0 1 22.528 54.735238l-37.473524 215.747047c-1.609143 9.167238 1.462857 18.529524 8.143238 24.966096l159.061333 152.868571a56.027429 56.027429 0 0 1 14.360381 57.417143 56.07619 56.07619 0 0 1-45.738667 38.034286l-197.973333 28.403809a70.704762 70.704762 0 0 0-53.248 38.351238l-88.33219 176.566857A56.32 56.32 0 0 1 512 798.47619c-21.820952 0-41.20381-11.922286-50.809905-31.183238L372.784762 590.750476a70.631619 70.631619 0 0 0-53.174857-38.326857L121.58781 523.946667a56.07619 56.07619 0 0 1-45.714286-38.034286c-6.607238-20.041143-0.975238-42.666667 14.311619-57.392762l159.085714-152.868571c6.704762-6.460952 9.752381-15.823238 8.167619-24.941715l-37.546666-215.771428c-5.241905-29.988571 15.018667-59.367619 46.592-64.609524 12.336762-1.999238 26.282667 0.731429 39.862857 7.801905l173.177904 89.770666a70.704762 70.704762 0 0 0 65.024 0l177.39581-92.013714c8.045714-4.144762 17.16419-6.38781 26.331429-6.387809z"  horiz-adv-x="1024" />

    
    <glyph glyph-name="ic_zhifubao1" unicode="&#58974;" d="M972.288 214.1696s-248.192 76.1856-303.2576 95.8464c32.9472 56.5248 58.9824 120.9344 76.1856 191.232h-187.7504v63.872h230.0416v38.8352h-230.0416V710.1184H468.992c-15.7184 0-17.6896-14.2592-17.6896-14.2592v-91.392H235.52v-38.8608h215.7824v-63.8976h-176.9472v-35.3792h358.8096c-13.2864-44.7232-30.464-86.9888-51.6096-125.3376-81.1008 27.0336-126.336 45.2096-225.1264 54.5536-187.7504 17.6896-231.0144-85.504-237.9008-148.4288-10.3168-95.8464 74.7264-174.4896 202.0352-174.4896 127.2832 0 211.84 58.496 292.4544 156.288 105.6768-50.6112 309.1456-138.5984 356.352-158.7456a177.3568 177.3568 0 0 0-174.4896-145.9968H228.1472A176.8448 176.8448 0 0 0 51.2 101.12V667.8528A176.8448 176.8448 0 0 0 228.1472 844.8h567.2192a176.8448 176.8448 0 0 0 176.9472-176.9472v-453.6832zM306.3296 132.608c-134.6816 0-155.8272 85.0432-148.9408 120.4224 6.8864 35.4048 46.208 81.5872 120.9088 81.5872 86.016 0 163.2-22.1184 255.5904-66.816-64.8704-84.5568-144.4864-135.168-227.584-135.168z"  horiz-adv-x="1024" />

    
    <glyph glyph-name="tab_shouye_sele" unicode="&#58973;" d="M853.290667-37.845333H163.797333A78.314667 78.314667 0 0 0 85.333333 40.32V457.130667c0 15.189333 7.082667 29.546667 19.157334 38.826666L452.565333 795.328a86.570667 86.570667 0 0 0 98.304 0l361.706667-299.413333c12.074667-9.258667 19.157333-23.616 19.157333-38.826667V40.32a78.293333 78.293333 0 0 0-78.442666-78.165333zM618.666667 64v106.666667a106.666667 106.666667 0 1 1-213.333334 0v-106.666667h213.333334z"  horiz-adv-x="1024" />

    
    <glyph glyph-name="tab_tuijian_sele" unicode="&#58975;" d="M213.333333 810.666667h597.333334a85.333333 85.333333 0 0 0 85.333333-85.333334v-678.762666a85.333333 85.333333 0 0 0-106.965333-82.56l-131.093334 34.346666a576 576 0 0 1-291.882666 0l-131.093334-34.346666A85.333333 85.333333 0 0 0 128 46.570667V725.333333a85.333333 85.333333 0 0 0 85.333333 85.333334z m278.826667-501.12a42.666667 42.666667 0 0 0 39.68 0l42.858667-22.506667a34.965333 34.965333 0 0 1 50.730666 36.842667l-8.192 47.722666a42.666667 42.666667 0 0 0 12.266667 37.76l34.666667 33.792a34.965333 34.965333 0 0 1-19.370667 59.626667l-47.914667 6.954667a42.666667 42.666667 0 0 0-32.106666 23.338666l-21.44 43.413334a34.965333 34.965333 0 0 1-62.677334 0l-21.44-43.413334a42.666667 42.666667 0 0 0-32.106666-23.338666l-47.914667-6.954667a34.965333 34.965333 0 0 1-19.370667-59.626667l34.666667-33.792a42.666667 42.666667 0 0 0 12.266667-37.76l-8.192-47.722666a34.965333 34.965333 0 0 1 50.730666-36.842667l42.837334 22.528z"  horiz-adv-x="1024" />

    
    <glyph glyph-name="tab_sousuo_sele" unicode="&#58976;" d="M784 172.330667l163.498667-163.498667a42.666667 42.666667 0 0 0-60.330667-60.330667l-163.477333 163.456C653.952 55.338667 565.333333 21.333333 469.333333 21.333333 245.44 21.333333 64 203.904 64 427.392 64 649.429333 245.44 832 469.333333 832c222.421333 0 405.333333-182.570667 405.333334-404.608 0-96.426667-34.048-185.258667-90.666667-255.061333zM469.333333 106.666667c175.509333 0 320 144.597333 320 320.725333C789.333333 602.24 644.672 746.666667 469.333333 746.666667 293.056 746.666667 149.333333 602.816 149.333333 427.392 149.333333 250.709333 292.906667 106.666667 469.333333 106.666667z"  horiz-adv-x="1024" />

    
    <glyph glyph-name="tab_gouwuche_sele" unicode="&#58977;" d="M370.56-7.296a54.485333 54.485333 0 1 0-108.992 0 54.485333 54.485333 0 0 0 108.992 0M850.090667-7.296a54.485333 54.485333 0 1 0-108.970667 0 54.485333 54.485333 0 0 0 108.970667 0M223.082667 216.234667L189.077333 637.461333H187.306667a21.802667 21.802667 0 1 0 0 43.605334h705.386666a108.992 108.992 0 0 0 105.216-137.429334l-94.72-350.506666a108.992 108.992 0 0 0-105.216-80.533334h-507.946666a87.189333 87.189333 0 0 0-86.912 80.170667 21.802667 21.802667 0 0 0 19.968 23.466667zM506.453333 156.181333a21.802667 21.802667 0 1 0 0-43.584h-197.845333a108.992 108.992 0 0 0-108.437333 98.133334L148.48 727.808a43.584 43.584 0 0 1-43.392 39.253333H64.469333a21.802667 21.802667 0 1 0 0 43.605334h40.64c44.8 0 82.304-33.941333 86.762667-78.506667l51.669333-517.077333a65.386667 65.386667 0 0 1 65.066667-58.88h197.824z"  horiz-adv-x="1024" />

    
    <glyph glyph-name="tab_wode-sele" unicode="&#58978;" d="M960 373.333333C960 131.797333 764.202667-64 522.666667-64S85.333333 131.797333 85.333333 373.333333 281.130667 810.666667 522.666667 810.666667 960 614.869333 960 373.333333z m-254.4-27.946666l-50.709333 60.437333 50.432 57.6a21.333333 21.333333 0 1 1-32.106667 28.096l-62.464-71.338667a21.333333 21.333333 0 0 1-0.298667-27.776l62.485334-74.453333a21.333333 21.333333 0 0 1 32.661333 27.434667z m-344.746667 118.016l50.410667-57.578667-50.709333-60.437333a21.333333 21.333333 0 1 1 32.682666-27.413334l62.464 74.453334a21.333333 21.333333 0 0 1-0.277333 27.733333l-62.506667 71.36a21.333333 21.333333 0 1 1-32.085333-28.117333z"  horiz-adv-x="1024" />

    
    <glyph glyph-name="tab_wode" unicode="&#58979;" d="M917.333333 394.666667C917.333333 612.629333 740.629333 789.333333 522.666667 789.333333S128 612.629333 128 394.666667 304.704 0 522.666667 0 917.333333 176.704 917.333333 394.666667z m42.666667 0C960 153.130667 764.202667-42.666667 522.666667-42.666667S85.333333 153.130667 85.333333 394.666667 281.130667 832 522.666667 832 960 636.202667 960 394.666667z m-254.4-27.946667a21.333333 21.333333 0 1 0-32.661333-27.413333l-62.485334 74.453333a21.333333 21.333333 0 0 0 0.298667 27.733333l62.464 71.36a21.333333 21.333333 0 1 0 32.106667-28.117333l-50.432-57.578667 50.709333-60.437333z m-344.746667 118.016a21.333333 21.333333 0 0 0 32.085334 28.117333l62.485333-71.338666a21.333333 21.333333 0 0 0 0.277333-27.776l-62.464-74.453334A21.333333 21.333333 0 1 0 360.533333 366.72l50.709334 60.437333-50.432 57.6z"  horiz-adv-x="1024" />

    
    <glyph glyph-name="tab_gouwuche" unicode="&#58980;" d="M477.184 112.597333h-168.576a108.992 108.992 0 0 0-108.437333 98.133334L148.48 727.808a43.584 43.584 0 0 1-43.392 39.253333H64.469333a21.802667 21.802667 0 1 0 0 43.605334h40.64c44.8 0 82.304-33.941333 86.762667-78.506667l51.669333-517.077333a65.386667 65.386667 0 0 1 65.066667-58.88h489.365333a65.386667 65.386667 0 0 1 63.146667 48.32l94.72 350.506666a65.386667 65.386667 0 0 1-63.146667 82.432H342.186667a21.802667 21.802667 0 0 0 0 43.605334h550.528a108.992 108.992 0 0 0 105.216-137.429334l-94.72-350.506666a108.992 108.992 0 0 0-105.216-80.533334H477.184z m-106.624-119.893333a54.485333 54.485333 0 1 0-108.992 0 54.485333 54.485333 0 0 0 108.992 0z m479.530667 0a54.485333 54.485333 0 1 0-108.970667 0 54.485333 54.485333 0 0 0 108.970667 0z"  horiz-adv-x="1024" />

    
    <glyph glyph-name="tab_sousuo" unicode="&#58981;" d="M490.666667 42.666667c199.082667 0 362.666667 163.690667 362.666666 363.392C853.333333 604.501333 689.536 768 490.666667 768 290.837333 768 128 605.013333 128 406.058667 128 205.824 290.645333 42.666667 490.666667 42.666667z m0-42.666667C266.752 0 85.333333 182.570667 85.333333 406.058667 85.333333 628.096 266.773333 810.666667 490.666667 810.666667c222.421333 0 405.333333-182.570667 405.333333-404.608C896 182.570667 713.088 0 490.666667 0zM752.917333 112.917333a21.333333 21.333333 0 0 0 30.165334 30.165334l170.666666-170.666667a21.333333 21.333333 0 0 0-30.165333-30.165333l-170.666667 170.666666z"  horiz-adv-x="1024" />

    
    <glyph glyph-name="tab_tuijian" unicode="&#58982;" d="M575.189333 364.373333a85.333333 85.333333 0 0 0 24.533334 75.541334l23.466666 22.890666-32.426666 4.693334a85.333333 85.333333 0 0 0-64.256 46.698666L512 543.573333l-14.506667-29.397333a85.333333 85.333333 0 0 0-64.256-46.677333l-32.426666-4.714667 23.466666-22.890667a85.333333 85.333333 0 0 0 24.533334-75.52l-5.546667-32.32 29.013333 15.253334a85.333333 85.333333 0 0 0 79.424 0l29.013334-15.253334-5.546667 32.298667z m-83.050666-54.826666l-42.837334-22.506667a34.965333 34.965333 0 0 0-50.730666 36.842667l8.192 47.722666a42.666667 42.666667 0 0 1-12.266667 37.76l-34.666667 33.792a34.965333 34.965333 0 0 0 19.370667 59.626667l47.914667 6.954667a42.666667 42.666667 0 0 1 32.106666 23.338666l21.44 43.413334a34.965333 34.965333 0 0 0 62.677334 0l21.44-43.413334a42.666667 42.666667 0 0 1 32.106666-23.338666l47.914667-6.954667a34.965333 34.965333 0 0 0 19.370667-59.626667l-34.666667-33.792a42.666667 42.666667 0 0 1-12.266667-37.76l8.192-47.722666a34.965333 34.965333 0 0 0-50.730666-36.842667L531.84 309.546667a42.666667 42.666667 0 0 1-39.722667 0zM213.333333 768a42.666667 42.666667 0 0 1-42.666666-42.666667v-678.762666a42.666667 42.666667 0 0 1 53.482666-41.28l131.093334 34.346666a618.666667 618.666667 0 0 0 313.514666 0l131.093334-34.346666A42.666667 42.666667 0 0 1 853.333333 46.570667V725.333333a42.666667 42.666667 0 0 1-42.666666 42.666667H213.333333z m0 42.666667h597.333334a85.333333 85.333333 0 0 0 85.333333-85.333334v-678.762666a85.333333 85.333333 0 0 0-106.965333-82.56l-131.093334 34.346666a576 576 0 0 1-291.882666 0l-131.093334-34.346666A85.333333 85.333333 0 0 0 128 46.570667V725.333333a85.333333 85.333333 0 0 0 85.333333 85.333334z"  horiz-adv-x="1024" />

    
    <glyph glyph-name="tab_shouye" unicode="&#58983;" d="M478.378667 761.28L132.309333 463.594667l-1.834666-1.493334a6.272 6.272 0 0 1-2.474667-4.970666V40.32c0-19.562667 16-35.498667 35.797333-35.498667h689.493334a35.626667 35.626667 0 0 1 35.776 35.498667V457.130667c0 1.92-0.917333 3.776-3.712 5.952L525.354667 761.109333a43.904 43.904 0 0 1-46.976 0.170667z m374.912-799.125333H163.797333A78.314667 78.314667 0 0 0 85.333333 40.32V457.130667c0 15.189333 7.082667 29.546667 19.157334 38.826666L452.565333 795.328a86.570667 86.570667 0 0 0 98.304 0l361.706667-299.413333c12.074667-9.258667 19.157333-23.616 19.157333-38.826667V40.32a78.293333 78.293333 0 0 0-78.442666-78.165333zM576 126.912v42.986667c0 35.605333-28.650667 64.448-64 64.448s-64-28.842667-64-64.448V64h-42.666667v105.898667C405.333333 229.226667 453.098667 277.333333 512 277.333333s106.666667-48.106667 106.666667-107.434666V64h-42.666667v62.912z"  horiz-adv-x="1024" />

    
    <glyph glyph-name="ic_yishiyoong" unicode="&#58984;" d="M1052.188444 880.298667l0.256-0.047408v-0.237037a556.278519 556.278519 0 0 1-0.256 0.284445zM1052.444444 52.603259a619.662222 619.662222 0 0 0-119.646814-89.789629c-295.035259-170.344296-670.701037-69.688889-841.045334 225.355851C-42.496 420.693333-8.438519 703.29837 156.444444 896h56.007112C38.798222 716.269037-3.498667 435.237926 127.29837 208.687407c158.027852-273.701926 511.269926-368.355556 784.981334-210.327703A569.808593 569.808593 0 0 1 1052.444444 112.165926v-59.562667z m0 555.70963v-144.298667l-5.556148 3.081482a435.086222 435.086222 0 0 1-57.571555 239.284148C956.48237 763.259259 901.764741 816.981333 836.93037 855.390815A448.123259 448.123259 0 0 1 739.991704 896h63.29837a455.632593 455.632593 0 0 0 44.506074-22.490074c64.83437-38.4 118.518519-90.358519 159.288889-156.871111l10.258963-17.768296A460.762074 460.762074 0 0 0 1052.444444 608.303407zM500.442074 896c-40.391111-11.159704-78.724741-29.44-115.038815-54.840889l-19.152592 12.648296A463.454815 463.454815 0 0 0 443.154963 896h57.296593z m409.950815-758.907259c-139.984593-118.736593-346.330074-143.075556-512.986074-47.350519-71.461926 41.690074-128.237037 98.967704-166.200889 164.731259-53.361778 92.425481-72.675556 199.765333-53.285926 305.749334l18.10963-10.875259c-15.350519-96.540444 1.640296-195.745185 51.920592-282.832593 37.973333-65.763556 92.690963-119.495111 157.515852-157.895111 101.831111-57.334519 216.699259-71.585185 328.059259-42.837333 58.737778 17.322667 112.327111 43.52 158.738963 82.176l18.128593-10.865778zM454.352593 582.731852l-154.699852 89.315555-41.955556-72.666074c-6.257778-10.837333-3.858963-19.77837 7.471408-26.320592l123.657481-71.395556c5.916444-3.413333 11.700148-4.778667 17.095111-3.953778 7.49037 1.583407 19.797333 15.502222 36.920889 41.746963l14.108445-15.378963c-20.100741-29.11763-34.806519-44.932741-44.420741-47.919407-8.400593-2.048-18.100148-0.06637-28.728889 5.413926l-133.518222 77.084444c-19.949037 11.52-23.826963 27.562667-12.164741 47.758223l74.666667 129.327407 17.73037-10.24-21.048889-36.456296 136.722963-78.933334 37.12 64.284445-164.314074 94.871704 9.955556 17.237333 182.290962-105.244445-56.888888-98.531555z m173.662814 15.018667l64.540445-37.262223 14.506667 25.125926 17.98637-10.382222-14.506667-25.125926 67.745185-39.111111-9.813333-16.990815-67.745185 39.111111-13.511111-23.409778 57.647407-33.28-40.25837-69.707851-58.624 33.848889c-14.772148-21.029926-28.776296-35.612444-42.533926-44.088889 16.810667-27.771259 40.978963-51.90163 72.248889-72.258371l-14.241185-14.440296c-33.21363 22.129778-58.529185 48.241778-75.823408 78.592-21.124741-5.869037-47.189333-2.654815-78.174815 9.671111l1.744593 20.660148c26.69037-11.794963 49.152-15.568593 66.740148-11.273481a215.447704 215.447704 0 0 0-17.303704 59.922963l18.953482 1.536c2.910815-19.418074 8.343704-37.328593 15.985778-54.234074 11.434667 7.850667 22.992593 19.911111 34.417777 36.295111l-55.182222 31.857778 40.258371 69.707851 56.158814-32.426666 13.511112 23.409777-64.540445 37.262223 9.813333 16.990815z m69.091556-165.357038l21.902222 37.944889-40.893629 23.608889-18.488889-32.028444c-1.137778-1.972148-2.522074-3.792593-3.659852-5.764741l41.140148-23.751111z m-59.126519 34.133334c1.137778 1.98163 2.522074 3.802074 3.659852 5.783704l18.488889 32.018962-39.414518 22.755556-21.902223-37.935407 39.168-22.613334z m-91.875555 93.449481a362.884741 362.884741 0 0 0-43.96563-16.981333l4.892445 22.129778c42.970074 15.265185 81.351111 39.082667 115.162074 71.461926l12.344889-17.303704a375.324444 375.324444 0 0 0-54.347852-41.216L484.475259 412.292741l-17.73037 10.24 79.36 137.453037z m260.190815-146.280296l-24.888889-43.112296 62.577778-36.124445 24.879407 43.112297-62.568296 36.124444z m-35.26163-58.794667c-20.906667-29.961481-45.103407-50.820741-72.817778-62.407111l-6.570666 19.892148c28.416 12.818963 52.622222 35.963259 72.599703 69.423408l68.266667 118.243555 183.514074-105.955555-106.524444-184.50963c-9.955556-17.237333-23.552-20.878222-40.798815-10.922667l-28.321185 16.355556 5.413926 20.195556c9.576296-6.191407 18.394074-11.946667 26.775703-16.782223 8.865185-5.12 16.535704-2.654815 22.509037 7.698963l24.746667 42.856297-67.00563 38.684444-41.671111-72.173037-18.232889 10.524444 41.671111 72.182519-63.55437 36.693333z m158.179556-69.650963l24.888889 43.112297-67.00563 38.684444-24.888889-43.112296 67.00563-38.684445z m34.417777 59.619556l24.462223 42.363259-67.00563 38.684445-24.462222-42.36326 67.005629-38.684444z m-60.776296 91.572148l-62.568296 36.124445-24.462222-42.36326 62.577777-36.124444 24.462223 42.363259z"  horiz-adv-x="1052" />

    
    <glyph glyph-name="ic_yiguoqi" unicode="&#58985;" d="M1043.882667 880.298667l0.256-0.047408v-0.237037l-0.256 0.284445z m0.256-827.695408a619.662222 619.662222 0 0 0-119.646815-89.789629c-295.035259-170.344296-670.701037-69.688889-841.045333 225.355851C-50.801778 420.693333-16.734815 703.29837 148.148148 896h56.007111C30.492444 716.269037-11.804444 435.237926 118.992593 208.687407c158.027852-273.701926 511.269926-368.355556 784.981333-210.327703a569.808593 569.808593 0 0 1 140.164741 113.806222v-59.562667z m-142.051556 84.48c-139.984593-118.727111-346.330074-143.075556-512.986074-47.341037-71.461926 41.690074-128.237037 98.967704-166.200889 164.731259-53.361778 92.425481-72.675556 199.765333-53.285926 305.749334l18.10963-10.875259c-15.350519-96.540444 1.640296-195.745185 51.920592-282.832593 37.973333-65.763556 92.690963-119.495111 157.515852-157.895111 101.831111-57.334519 216.699259-71.585185 328.05926-42.837333 58.737778 17.322667 112.327111 43.52 158.738963 82.176l18.128592-10.865778zM447.070815 584.5333330000001l-154.709334 89.315556-41.955555-72.675556c-6.257778-10.837333-3.858963-19.77837 7.471407-26.320592L381.534815 503.466667c5.916444-3.413333 11.690667-4.778667 17.095111-3.953778 7.49037 1.592889 19.787852 15.511704 36.911407 41.746963l14.117926-15.369482c-20.100741-29.127111-34.816-44.942222-44.42074-47.928889-8.410074-2.038519-18.100148-0.056889-28.728889 5.423408l-133.518223 77.084444c-19.949037 11.52-23.826963 27.553185-12.16474 47.748741l74.666666 129.327407 17.730371-10.24-21.048889-36.456296 136.722963-78.933333 37.12 64.293926-164.314074 94.862222 9.955555 17.246815 182.290963-105.244445-56.888889-98.531555z m132.219259 67.84c9.216-22.727111 15.720296-43.889778 19.655111-63.241481l-20.347259-5.660445c-2.844444 18.394074-8.817778 39.917037-18.299259 64.436149l18.991407 4.465777z m23.912296-304.478814c-14.042074 8.106667-29.174519 17.170963-45.539555 26.94637-16.602074 9.91763-29.297778 19.218963-37.831111 27.761778-8.647111 8.922074-14.203259 20.347259-16.971852 33.763555-1.024 6.181926-3.337481 10.145185-6.542222 11.994074-5.906963 3.413333-22.546963-2.085926-49.711408-17.275259l-6.475852 19.503407c25.53363 13.50163 44.506074 19.626667 57.410371 18.090667l43.093333 74.638222-35.470222 20.48 9.671111 16.744297 52.470518-30.293334-53.333333-92.368592c1.109333-2.616889 2.332444-5.622519 3.128889-9.367704 2.427259-10.590815 6.087111-19.607704 11.235556-27.183407 6.039704-7.74637 16.867556-16.308148 31.857777-25.609482 13.406815-8.068741 30.255407-18.128593 50.460445-29.790815 10.837333-6.257778 21.816889-12.269037 33.147259-18.811259 11.226074-6.162963 19.996444-10.884741 26.187852-13.805037l-14.810074-15.42637-51.977482 30.008889z m11.662223 37.281185l-34.986667 20.195555 5.878518 19.266371a589.653333 589.653333 0 0 1 32.047408-20.148149c6.902519-3.982222 12.591407-2.664296 16.431407 3.982223l60.444445 104.694518-93.108148 53.76 10.088296 17.493334 93.108148-53.76 23.04 39.907555 17.98637-10.382222-23.04-39.907556 36.465778-21.048889-10.097778-17.493333-36.465777 21.048889-62.862223-108.875852c-8.248889-14.288593-20.148148-17.265778-34.929777-8.732444z m0.891259 144.327111c5.243259-27.335111 8.059259-50.308741 8.476444-68.939852l-19.977481-1.611852c-0.331852 19.911111-2.768593 42.989037-7.414519 69.650963l18.915556 0.900741z m210.773333-16.260741l17.256296-9.955555-15.928888-27.591112 48.033185-27.733333 15.644444 27.098074 17.237334-9.955555-15.644445-27.098074 14.791111-8.533334-9.53837-16.497778-14.78163 8.533334-60.16-104.201482 16.023704-9.253926-9.671111-16.744296-116.527408 67.271111 9.671112 16.744296 17.98637-10.382222 60.16 104.201482-15.274667 8.817777 9.528889 16.50726 15.265185-8.817778 15.928889 27.591111z m-68.361481-158.245926l48.033185-27.742815 13.937778 24.149334-48.042667 27.733333-13.937778-24.149333z m108.183703 76.458667l-48.033185 27.733333-14.222222-24.632889 48.042667-27.733333 14.222222 24.632889z m-85.295407-36.807111l48.042667-27.733334 14.08 24.386371-48.042667 27.733333-14.08-24.38637z m7.338667-87.988148c3.043556-21.466074 4.370963-39.632593 4.276148-54.034963 29.487407 13.520593 54.253037 37.650963 74.657185 71.860148l66.56 115.285333 81.787259-47.217778-111.502222-193.137777c-8.106667-14.032593-19.626667-16.914963-33.915259-8.666075l-26.112 15.075556 5.176889 20.337778c8.827259-5.755259 16.914963-11.083852 24.803555-15.634963 6.4-3.697778 11.738074-1.848889 16.004741 5.537185l29.155556 50.49837-47.786667 27.591111c-22.224593-30.53037-47.578074-51.683556-76.354371-63.971555l-6.295703 20.385185a5.95437 5.95437 0 0 1 1.839407 0.900741l-18.460444-1.820445c0.853333 16.260741-0.056889 35.176296-2.607408 56.357926l18.773334 0.663704zM740.503704 334.639407l10.30637-15.141926c-19.607704-12.325926-39.405037-21.598815-59.259259-27.543703l-8.210963 18.204444c19.285333 4.968296 38.381037 12.98963 57.163852 24.481185z m166.930963 18.906074l-21.76-37.688888c-1.28-2.209185-2.664296-4.039111-3.802074-6.01126l46.800592-27.022222 25.315556 43.84237-46.554074 26.88z m55.94074-10.619259l24.888889 43.112297-46.554074 26.88-24.888889-43.112297 46.554074-26.88z m80.76326 265.386667v-144.298667l-5.556148 3.081482a435.086222 435.086222 0 0 1-57.571556 239.284148C948.176593 763.2592589999999 893.458963 816.981333 828.624593 855.390815A448.123259 448.123259 0 0 1 731.685926 896h63.29837a455.632593 455.632593 0 0 0 44.506074-22.490074c64.83437-38.4 118.518519-90.358519 159.288889-156.871111l10.258963-17.768296a460.762074 460.762074 0 0 0 35.100445-90.567112zM492.136296 896c-40.391111-11.159704-78.724741-29.44-115.038815-54.840889l-19.152592 12.648296A463.454815 463.454815 0 0 0 434.849185 896h57.296593z"  horiz-adv-x="1052" />

    
    <glyph glyph-name="ic_lianshangzhifu" unicode="&#58987;" d="M498.176 120.96c-35.3792 0-64.1536 24.2432-64.1536 54.0672 0 29.7984 28.7744 54.0672 64.128 54.0672 35.3792 0 64.1536-24.2688 64.1536-54.0672 0-29.824-28.7744-54.0672-64.1536-54.0672M837.9648 463.616c-3.4048 24.2688-11.5712 47.4624-22.0928 69.504-11.5456 24.2432-27.776 46.464-46.0032 66.0992-10.88 11.776-30.5152 11.0592-41.5488 0-11.6224-11.6736-10.9056-29.952 0-41.728 4.608-4.9152 8.832-10.1376 13.056-15.4112 10.4448-14.08 19.3536-29.184 26.496-45.2352 5.9904-15.0272 10.2912-30.6176 12.8256-46.6176 1.792-15.872 1.8176-31.8464 0.1024-47.7184a217.216 217.216 0 0 0-12.672-46.8736 237.056 237.056 0 0 0-27.0848-46.3104c-3.968-4.9408-7.9616-9.8304-12.2368-14.464-10.8544-11.776-11.648-30.0288 0-41.728 11.008-11.008 30.6944-11.8016 41.5744 0 33.28 36.1472 58.2144 80.8192 66.7136 129.6128 2.304 13.312 3.8144 26.88 4.0448 40.4224 0.2048 13.5936-1.28 27.008-3.1744 40.448m-202.4192 76.1344c-11.6224-11.6736-10.9056-29.952 0-41.728 2.432-2.6368 4.6848-5.4272 6.9632-8.192 5.76-7.8848 10.6496-16.2816 14.7456-25.1136 3.2-8.3968 5.5808-16.9984 7.0144-25.8304 0.7936-8.32 0.7936-16.7424 0-25.088-1.4336-8.8576-3.8144-17.4592-7.0144-25.8304a147.968 147.968 0 0 0-14.7712-25.1136c-2.2528-2.816-4.5056-5.5808-6.9376-8.2176-10.9056-11.776-11.6224-30.0288 0-41.728 11.008-11.0336 30.6688-11.7504 41.5744 0 28.7744 31.0528 46.5408 70.7072 46.7712 113.4336 0.256 42.5216-18.2272 82.6368-46.7712 113.408-10.9056 11.776-30.5664 11.0592-41.5744 0m-108.4672-255.3344v101.4272h36.1984c8.9856 0 18.2528 5.9136 18.2528 19.7632v20.9664c0 11.3408-7.296 18.0736-20.9408 18.0736h-33.536v23.5776c0 16.2048-13.1072 25.984-29.312 25.984-16.1536 0-29.2864-9.7792-29.2864-25.984v-183.9872c-53.248-12.2368-92.8768-56.4736-92.8768-109.184 0-62.1056 54.9888-112.64 122.5728-112.64 67.6096 0 122.5984 50.5344 122.5984 112.64 0 52.992-39.9872 97.3824-93.696 109.3632m-167.4752 154.4704c1.4336 8.832 3.8144 17.408 7.0144 25.8304a147.968 147.968 0 0 0 14.7456 25.088c2.2784 2.7904 4.5312 5.5808 6.9632 8.2432 10.9056 11.776 11.6224 30.0288 0 41.728-11.008 11.008-30.6688 11.776-41.5744 0-28.7744-31.0528-46.4384-70.7072-46.6688-113.4336-0.256-42.5472 18.1248-82.6112 46.6688-113.408 10.9056-11.776 30.5664-11.0592 41.5744 0 11.6224 11.6736 10.9056 29.952 0 41.7024-2.432 2.6368-4.6848 5.4272-6.9632 8.192a148.7872 148.7872 0 0 0-14.7456 25.1392 130.8928 130.8928 0 0 0-7.0144 25.8304 133.888 133.888 0 0 0 0 25.088M295.5264 599.1936c-11.008 11.0592-30.6688 11.776-41.5744 0-33.28-35.9168-58.1376-80.384-66.8928-128.9472a260.224 260.224 0 0 1-4.1984-40.2176c-0.3328-13.6704 1.152-27.0848 2.944-40.6016 3.328-24.3968 11.264-47.6928 21.76-69.888 11.4688-24.3712 27.6992-46.6688 45.9008-66.4064 10.88-11.8272 30.5664-11.008 41.5744 0 11.648 11.6736 10.8544 29.9264 0 41.728a271.4112 271.4112 0 0 0-12.2368 14.4384 237.056 237.056 0 0 0-27.0848 46.3104 215.9104 215.9104 0 0 0-12.672 46.848 216.192 216.192 0 0 0 0.1024 47.744A219.0336 219.0336 0 0 0 256 496.8192a239.3856 239.3856 0 0 0 26.4192 45.1072c4.224 5.3248 8.5248 10.5728 13.1328 15.5648 10.9056 11.776 11.6224 30.0288 0 41.728M837.2736-76.8H186.7264A135.552 135.552 0 0 0 51.2 58.7264V709.2736A135.5264 135.5264 0 0 0 186.7264 844.8h650.5472A135.5264 135.5264 0 0 0 972.8 709.2736v-650.5472A135.552 135.552 0 0 0 837.2736-76.8"  horiz-adv-x="1024" />

    
    <glyph glyph-name="ic_fahuo" unicode="&#58988;" d="M512-128C229.2352-128 0 101.2352 0 384S229.2352 896 512 896s512-229.2352 512-512-229.2352-512-512-512z m277.9136 740.928l-341.44-366.72-206.8224 191.6544a44.8 44.8 0 0 1-60.9024-65.7152L420.352 150.1184a44.8 44.8 0 0 1 63.232 2.3296l371.904 399.424a44.8 44.8 0 0 1-65.5744 61.056z"  horiz-adv-x="1024" />

    
    <glyph glyph-name="ic_chaping" unicode="&#58989;" d="M512-128C229.233778-128 0 101.233778 0 384S229.233778 896 512 896s512-229.233778 512-512-229.233778-512-512-512z m-192 566.869333a64 64 0 1 1 0 128 64 64 0 0 1 0-128z m402.289778 0a64 64 0 1 1 0 128 64 64 0 0 1 0-128z m62.350222-261.233777c-151.466667 116.423111-322.332444 116.423111-506.595556 1.536a27.420444 27.420444 0 1 1 29.041778-46.535112c165.660444 103.281778 311.694222 103.281778 444.131556 1.507556a27.420444 27.420444 0 1 1 33.422222 43.52z"  horiz-adv-x="1024" />

    
    <glyph glyph-name="ic_pingjiadianpu" unicode="&#58990;" d="M754.967273 187.640242a155.151515 155.151515 0 0 0 44.621575 137.309091l155.275637 151.365819-214.574546 31.185454a155.151515 155.151515 0 0 0-116.829091 84.867879L527.515152 786.773333l-95.945697-194.435878a155.151515 155.151515 0 0 0-116.829091-84.867879l-214.574546-31.185455 155.275637-151.365818a155.151515 155.151515 0 0 0 44.621575-137.309091l-36.677818-213.705697 191.922424 100.879515a155.151515 155.151515 0 0 0 144.415031 0l191.922424-100.879515-36.677818 213.705697z m-270.770425-167.749818l-247.559757-130.141091a31.030303 31.030303 0 0 0-45.02497 32.70594l47.259152 275.673212a93.090909 93.090909 0 0 1-26.748121 82.385454L11.791515 475.756606a31.030303 31.030303 0 0 0 17.190788 52.937697l276.790303 40.215273a93.090909 93.090909 0 0 1 70.128485 50.920727L499.649939 870.648242a31.030303 31.030303 0 0 0 55.668364 0L679.129212 619.830303a93.090909 93.090909 0 0 1 70.097455-50.920727l276.790303-40.215273a31.030303 31.030303 0 0 0 17.190788-52.937697l-200.300606-195.242667a93.090909 93.090909 0 0 1-26.748122-82.385454l47.259152-275.673212a31.030303 31.030303 0 0 0-44.99394-32.70594l-247.590787 130.141091a93.090909 93.090909 0 0 1-86.636607 0z"  horiz-adv-x="1055" />

    
    <glyph glyph-name="ic_pingjiadianpu1" unicode="&#58991;" d="M469.767758 47.352242a124.121212 124.121212 0 0 0 115.494787 0l247.590788-130.14109-47.290181 275.673212a124.121212 124.121212 0 0 0 35.684848 109.847272l200.300606 195.242667-276.790303 40.215273a124.121212 124.121212 0 0 0-93.463273 67.894303L527.515152 856.901818l-123.81091-250.817939A124.121212 124.121212 0 0 0 310.30303 538.220606l-276.790303-40.215273 200.300606-195.242666a124.121212 124.121212 0 0 0 35.684849-109.847273L222.17697-82.788848l247.590788 130.14109z"  horiz-adv-x="1055" />

    
    <glyph glyph-name="ic_zhongping" unicode="&#58992;" d="M512-128C229.233778-128 0 101.233778 0 384S229.233778 896 512 896s512-229.233778 512-512-229.233778-512-512-512z m-192 566.869333a64 64 0 1 1 0 128 64 64 0 0 1 0-128z m402.289778 0a64 64 0 1 1 0 128 64 64 0 0 1 0-128z m-429.710222-228.579555h475.335111a27.420444 27.420444 0 1 1 0 54.840889H292.579556a27.420444 27.420444 0 0 1 0-54.840889z"  horiz-adv-x="1024" />

    
    <glyph glyph-name="ic_xiangji" unicode="&#58993;" d="M1238.042256 714.069333c28.566974 0 47.629128-19.035897 47.629129-47.602871v-723.784206c0-28.566974-23.814564-47.602872-47.629129-47.602871H47.602872C19.035897-104.920615 0-85.884718 0-57.317744V666.466462C0 695.033436 23.814564 714.043077 47.602872 714.043077h209.526154l61.912615 138.108718C328.546462 875.966359 361.892103 895.028513 385.706667 895.028513h514.258051c23.814564 0 57.133949-19.062154 66.665026-42.850462l61.886359-138.108718h209.526153z m-595.23282-619.021128c138.108718 0 247.624205 114.294154 247.624205 247.597949 0 133.356308-109.489231 247.624205-247.597949 247.624205s-247.597949-109.515487-247.597948-247.597949c0-133.330051 109.489231-247.597949 247.597948-247.597948z m-152.365949 252.376616a152.365949 152.365949 0 1 0 304.758154 0 152.365949 152.365949 0 0 0-304.758154 0z"  horiz-adv-x="1286" />

    
    <glyph glyph-name="ic_haoping1" unicode="&#58994;" d="M512-128C229.233778-128 0 101.233778 0 384S229.233778 896 512 896s512-229.233778 512-512-229.233778-512-512-512z m-192 566.869333a64 64 0 1 1 0 128 64 64 0 0 1 0-128z m402.289778 0a64 64 0 1 1 0 128 64 64 0 0 1 0-128zM275.854222 215.978667C427.349333 99.555556 598.215111 99.555556 782.449778 214.442667a27.420444 27.420444 0 0 1-29.013334 46.535111c-165.688889-103.281778-311.722667-103.281778-444.16-1.507556a27.420444 27.420444 0 0 1-33.422222-43.52z"  horiz-adv-x="1024" />

    
    <glyph glyph-name="ic_gou1" unicode="&#58995;" d="M888.380235 699.361882a52.705882 52.705882 0 1 0 75.474824-73.547294l-547.297883-561.694117-1.505882-1.505883a82.823529 82.823529 0 0 0-117.157647 1.505883l-252.807529 259.493647a52.705882 52.705882 0 0 0 75.474823 73.547294l236.664471-242.868706L888.380235 699.361882z"  horiz-adv-x="1024" />

    
    <glyph glyph-name="ic_tu" unicode="&#58996;" d="M128 832A64 64 0 0 1 64 768v-768A64 64 0 0 1 128-64h768a64 64 0 0 1 64 64V768A64 64 0 0 1 896 832H128zM128 896h768a128 128 0 0 0 128-128v-768a128 128 0 0 0-128-128H128a128 128 0 0 0-128 128V768a128 128 0 0 0 128 128z m128-325.802667a69.802667 69.802667 0 1 0 0 139.605334 69.802667 69.802667 0 0 0 0-139.605334zM154.112 34.56a32 32 0 1 0-42.922667 47.445333l110.08 99.541334a160 160 0 0 0 107.306667 41.386666h221.568a96 96 0 0 1 68.650667 28.885334l242.005333 247.594666a32 32 0 0 0 45.781333-44.714666l-242.048-247.637334a160 160 0 0 0-114.389333-48.170666H328.533333a96 96 0 0 1-64.426666-24.789334l-110.037334-99.541333z"  horiz-adv-x="1024" />

    
    <glyph glyph-name="ic_duijiang" unicode="&#58997;" d="M512 896c282.774588 0 512-229.225412 512-512s-229.225412-512-512-512S0 101.225412 0 384 229.225412 896 512 896z m-180.705882-240.941176a60.235294 60.235294 0 0 1-60.235294-60.235295v-451.764705a60.235294 60.235294 0 0 1 60.235294-60.235295h391.529411a60.235294 60.235294 0 0 1 60.235295 60.235295V594.823529a60.235294 60.235294 0 0 1-60.235295 60.235295H331.294118z m90.352941-225.882353a30.117647 30.117647 0 0 0 0 60.235294h229.616941a30.117647 30.117647 0 0 0 0-60.235294H421.647059z m0-174.019765a30.117647 30.117647 0 1 0 0 60.235294h114.80847a30.117647 30.117647 0 0 0 0-60.235294H421.647059z"  horiz-adv-x="1024" />

    
    </font>
</defs>
</svg>
